<?xml version="1.0" encoding="utf-8" standalone="no"?>
<!DOCTYPE svg PUBLIC "-//W3C//DTD SVG 1.1//EN"
  "http://www.w3.org/Graphics/SVG/1.1/DTD/svg11.dtd">
<!-- Created with matplotlib (https://matplotlib.org/) -->
<svg height="576pt" version="1.1" viewBox="0 0 864 576" width="864pt" xmlns="http://www.w3.org/2000/svg" xmlns:xlink="http://www.w3.org/1999/xlink">
 <metadata>
  <rdf:RDF xmlns:cc="http://creativecommons.org/ns#" xmlns:dc="http://purl.org/dc/elements/1.1/" xmlns:rdf="http://www.w3.org/1999/02/22-rdf-syntax-ns#">
   <cc:Work>
    <dc:type rdf:resource="http://purl.org/dc/dcmitype/StillImage"/>
    <dc:date>2021-01-28T19:23:17.138515</dc:date>
    <dc:format>image/svg+xml</dc:format>
    <dc:creator>
     <cc:Agent>
      <dc:title>Matplotlib v3.3.4, https://matplotlib.org/</dc:title>
     </cc:Agent>
    </dc:creator>
   </cc:Work>
  </rdf:RDF>
 </metadata>
 <defs>
  <style type="text/css">*{stroke-linecap:butt;stroke-linejoin:round;}</style>
 </defs>
 <g id="figure_1">
  <g id="patch_1">
   <path d="M 0 576 
L 864 576 
L 864 0 
L 0 0 
z
" style="fill:none;"/>
  </g>
  <g id="axes_1">
   <g id="patch_2">
    <path d="M 108 504 
L 777.6 504 
L 777.6 69.12 
L 108 69.12 
z
" style="fill:#ffffff;"/>
   </g>
   <g id="PathCollection_1">
    <defs>
     <path d="M 0 3 
C 0.795609 3 1.55874 2.683901 2.12132 2.12132 
C 2.683901 1.55874 3 0.795609 3 -0 
C 3 -0.795609 2.683901 -1.55874 2.12132 -2.12132 
C 1.55874 -2.683901 0.795609 -3 0 -3 
C -0.795609 -3 -1.55874 -2.683901 -2.12132 -2.12132 
C -2.683901 -1.55874 -3 -0.795609 -3 0 
C -3 0.795609 -2.683901 1.55874 -2.12132 2.12132 
C -1.55874 2.683901 -0.795609 3 0 3 
z
" id="C0_0_c3e259214f"/>
    </defs>
    <g clip-path="url(#p8cc554b0c7)">
     <use style="fill:#00008b;fill-opacity:0.8;stroke:#ffffff;stroke-opacity:0.8;stroke-width:3;" x="356.257107" xlink:href="#C0_0_c3e259214f" y="481.879481"/>
    </g>
    <g clip-path="url(#p8cc554b0c7)">
     <use style="fill:#00008b;fill-opacity:0.8;stroke:#ffffff;stroke-opacity:0.8;stroke-width:3;" x="356.257107" xlink:href="#C0_0_c3e259214f" y="481.879481"/>
    </g>
    <g clip-path="url(#p8cc554b0c7)">
     <use style="fill:#00008b;fill-opacity:0.8;stroke:#ffffff;stroke-opacity:0.8;stroke-width:3;" x="356.257107" xlink:href="#C0_0_c3e259214f" y="474.81974"/>
    </g>
    <g clip-path="url(#p8cc554b0c7)">
     <use style="fill:#00008b;fill-opacity:0.8;stroke:#ffffff;stroke-opacity:0.8;stroke-width:3;" x="740.245214" xlink:href="#C0_0_c3e259214f" y="411.282078"/>
    </g>
    <g clip-path="url(#p8cc554b0c7)">
     <use style="fill:#00008b;fill-opacity:0.8;stroke:#ffffff;stroke-opacity:0.8;stroke-width:3;" x="740.245214" xlink:href="#C0_0_c3e259214f" y="418.341818"/>
    </g>
    <g clip-path="url(#p8cc554b0c7)">
     <use style="fill:#00008b;fill-opacity:0.8;stroke:#ffffff;stroke-opacity:0.8;stroke-width:3;" x="740.245214" xlink:href="#C0_0_c3e259214f" y="481.879481"/>
    </g>
    <g clip-path="url(#p8cc554b0c7)">
     <use style="fill:#00008b;fill-opacity:0.8;stroke:#ffffff;stroke-opacity:0.8;stroke-width:3;" x="740.245214" xlink:href="#C0_0_c3e259214f" y="484.232727"/>
    </g>
    <g clip-path="url(#p8cc554b0c7)">
     <use style="fill:#00008b;fill-opacity:0.8;stroke:#ffffff;stroke-opacity:0.8;stroke-width:3;" x="740.245214" xlink:href="#C0_0_c3e259214f" y="474.81974"/>
    </g>
    <g clip-path="url(#p8cc554b0c7)">
     <use style="fill:#00008b;fill-opacity:0.8;stroke:#ffffff;stroke-opacity:0.8;stroke-width:3;" x="356.257107" xlink:href="#C0_0_c3e259214f" y="481.879481"/>
    </g>
    <g clip-path="url(#p8cc554b0c7)">
     <use style="fill:#00008b;fill-opacity:0.8;stroke:#ffffff;stroke-opacity:0.8;stroke-width:3;" x="356.257107" xlink:href="#C0_0_c3e259214f" y="481.879481"/>
    </g>
    <g clip-path="url(#p8cc554b0c7)">
     <use style="fill:#00008b;fill-opacity:0.8;stroke:#ffffff;stroke-opacity:0.8;stroke-width:3;" x="356.257107" xlink:href="#C0_0_c3e259214f" y="472.466494"/>
    </g>
    <g clip-path="url(#p8cc554b0c7)">
     <use style="fill:#00008b;fill-opacity:0.8;stroke:#ffffff;stroke-opacity:0.8;stroke-width:3;" x="740.245214" xlink:href="#C0_0_c3e259214f" y="408.928831"/>
    </g>
    <g clip-path="url(#p8cc554b0c7)">
     <use style="fill:#00008b;fill-opacity:0.8;stroke:#ffffff;stroke-opacity:0.8;stroke-width:3;" x="740.245214" xlink:href="#C0_0_c3e259214f" y="474.81974"/>
    </g>
    <g clip-path="url(#p8cc554b0c7)">
     <use style="fill:#00008b;fill-opacity:0.8;stroke:#ffffff;stroke-opacity:0.8;stroke-width:3;" x="740.245214" xlink:href="#C0_0_c3e259214f" y="481.879481"/>
    </g>
    <g clip-path="url(#p8cc554b0c7)">
     <use style="fill:#00008b;fill-opacity:0.8;stroke:#ffffff;stroke-opacity:0.8;stroke-width:3;" x="740.245214" xlink:href="#C0_0_c3e259214f" y="481.879481"/>
    </g>
    <g clip-path="url(#p8cc554b0c7)">
     <use style="fill:#00008b;fill-opacity:0.8;stroke:#ffffff;stroke-opacity:0.8;stroke-width:3;" x="740.245214" xlink:href="#C0_0_c3e259214f" y="479.526234"/>
    </g>
    <g clip-path="url(#p8cc554b0c7)">
     <use style="fill:#00008b;fill-opacity:0.8;stroke:#ffffff;stroke-opacity:0.8;stroke-width:3;" x="356.257107" xlink:href="#C0_0_c3e259214f" y="481.879481"/>
    </g>
    <g clip-path="url(#p8cc554b0c7)">
     <use style="fill:#00008b;fill-opacity:0.8;stroke:#ffffff;stroke-opacity:0.8;stroke-width:3;" x="356.257107" xlink:href="#C0_0_c3e259214f" y="481.879481"/>
    </g>
    <g clip-path="url(#p8cc554b0c7)">
     <use style="fill:#00008b;fill-opacity:0.8;stroke:#ffffff;stroke-opacity:0.8;stroke-width:3;" x="356.257107" xlink:href="#C0_0_c3e259214f" y="481.879481"/>
    </g>
    <g clip-path="url(#p8cc554b0c7)">
     <use style="fill:#00008b;fill-opacity:0.8;stroke:#ffffff;stroke-opacity:0.8;stroke-width:3;" x="740.245214" xlink:href="#C0_0_c3e259214f" y="458.347013"/>
    </g>
    <g clip-path="url(#p8cc554b0c7)">
     <use style="fill:#00008b;fill-opacity:0.8;stroke:#ffffff;stroke-opacity:0.8;stroke-width:3;" x="740.245214" xlink:href="#C0_0_c3e259214f" y="474.81974"/>
    </g>
    <g clip-path="url(#p8cc554b0c7)">
     <use style="fill:#00008b;fill-opacity:0.8;stroke:#ffffff;stroke-opacity:0.8;stroke-width:3;" x="740.245214" xlink:href="#C0_0_c3e259214f" y="481.879481"/>
    </g>
    <g clip-path="url(#p8cc554b0c7)">
     <use style="fill:#00008b;fill-opacity:0.8;stroke:#ffffff;stroke-opacity:0.8;stroke-width:3;" x="740.245214" xlink:href="#C0_0_c3e259214f" y="481.879481"/>
    </g>
    <g clip-path="url(#p8cc554b0c7)">
     <use style="fill:#00008b;fill-opacity:0.8;stroke:#ffffff;stroke-opacity:0.8;stroke-width:3;" x="740.245214" xlink:href="#C0_0_c3e259214f" y="479.526234"/>
    </g>
    <g clip-path="url(#p8cc554b0c7)">
     <use style="fill:#1e90ff;fill-opacity:0.8;stroke:#ffffff;stroke-opacity:0.8;stroke-width:3;" x="356.257107" xlink:href="#C0_0_c3e259214f" y="481.879481"/>
    </g>
    <g clip-path="url(#p8cc554b0c7)">
     <use style="fill:#1e90ff;fill-opacity:0.8;stroke:#ffffff;stroke-opacity:0.8;stroke-width:3;" x="356.257107" xlink:href="#C0_0_c3e259214f" y="481.879481"/>
    </g>
    <g clip-path="url(#p8cc554b0c7)">
     <use style="fill:#1e90ff;fill-opacity:0.8;stroke:#ffffff;stroke-opacity:0.8;stroke-width:3;" x="356.257107" xlink:href="#C0_0_c3e259214f" y="470.113247"/>
    </g>
    <g clip-path="url(#p8cc554b0c7)">
     <use style="fill:#1e90ff;fill-opacity:0.8;stroke:#ffffff;stroke-opacity:0.8;stroke-width:3;" x="740.245214" xlink:href="#C0_0_c3e259214f" y="411.282078"/>
    </g>
    <g clip-path="url(#p8cc554b0c7)">
     <use style="fill:#1e90ff;fill-opacity:0.8;stroke:#ffffff;stroke-opacity:0.8;stroke-width:3;" x="740.245214" xlink:href="#C0_0_c3e259214f" y="418.341818"/>
    </g>
    <g clip-path="url(#p8cc554b0c7)">
     <use style="fill:#1e90ff;fill-opacity:0.8;stroke:#ffffff;stroke-opacity:0.8;stroke-width:3;" x="740.245214" xlink:href="#C0_0_c3e259214f" y="481.879481"/>
    </g>
    <g clip-path="url(#p8cc554b0c7)">
     <use style="fill:#1e90ff;fill-opacity:0.8;stroke:#ffffff;stroke-opacity:0.8;stroke-width:3;" x="740.245214" xlink:href="#C0_0_c3e259214f" y="484.232727"/>
    </g>
    <g clip-path="url(#p8cc554b0c7)">
     <use style="fill:#1e90ff;fill-opacity:0.8;stroke:#ffffff;stroke-opacity:0.8;stroke-width:3;" x="740.245214" xlink:href="#C0_0_c3e259214f" y="481.879481"/>
    </g>
    <g clip-path="url(#p8cc554b0c7)">
     <use style="fill:#1e90ff;fill-opacity:0.8;stroke:#ffffff;stroke-opacity:0.8;stroke-width:3;" x="356.257107" xlink:href="#C0_0_c3e259214f" y="481.879481"/>
    </g>
    <g clip-path="url(#p8cc554b0c7)">
     <use style="fill:#1e90ff;fill-opacity:0.8;stroke:#ffffff;stroke-opacity:0.8;stroke-width:3;" x="356.257107" xlink:href="#C0_0_c3e259214f" y="481.879481"/>
    </g>
    <g clip-path="url(#p8cc554b0c7)">
     <use style="fill:#1e90ff;fill-opacity:0.8;stroke:#ffffff;stroke-opacity:0.8;stroke-width:3;" x="356.257107" xlink:href="#C0_0_c3e259214f" y="474.81974"/>
    </g>
    <g clip-path="url(#p8cc554b0c7)">
     <use style="fill:#1e90ff;fill-opacity:0.8;stroke:#ffffff;stroke-opacity:0.8;stroke-width:3;" x="740.245214" xlink:href="#C0_0_c3e259214f" y="408.928831"/>
    </g>
    <g clip-path="url(#p8cc554b0c7)">
     <use style="fill:#1e90ff;fill-opacity:0.8;stroke:#ffffff;stroke-opacity:0.8;stroke-width:3;" x="740.245214" xlink:href="#C0_0_c3e259214f" y="474.81974"/>
    </g>
    <g clip-path="url(#p8cc554b0c7)">
     <use style="fill:#1e90ff;fill-opacity:0.8;stroke:#ffffff;stroke-opacity:0.8;stroke-width:3;" x="740.245214" xlink:href="#C0_0_c3e259214f" y="481.879481"/>
    </g>
    <g clip-path="url(#p8cc554b0c7)">
     <use style="fill:#1e90ff;fill-opacity:0.8;stroke:#ffffff;stroke-opacity:0.8;stroke-width:3;" x="740.245214" xlink:href="#C0_0_c3e259214f" y="481.879481"/>
    </g>
    <g clip-path="url(#p8cc554b0c7)">
     <use style="fill:#1e90ff;fill-opacity:0.8;stroke:#ffffff;stroke-opacity:0.8;stroke-width:3;" x="740.245214" xlink:href="#C0_0_c3e259214f" y="481.879481"/>
    </g>
    <g clip-path="url(#p8cc554b0c7)">
     <use style="fill:#1e90ff;fill-opacity:0.8;stroke:#ffffff;stroke-opacity:0.8;stroke-width:3;" x="356.257107" xlink:href="#C0_0_c3e259214f" y="481.879481"/>
    </g>
    <g clip-path="url(#p8cc554b0c7)">
     <use style="fill:#1e90ff;fill-opacity:0.8;stroke:#ffffff;stroke-opacity:0.8;stroke-width:3;" x="356.257107" xlink:href="#C0_0_c3e259214f" y="481.879481"/>
    </g>
    <g clip-path="url(#p8cc554b0c7)">
     <use style="fill:#1e90ff;fill-opacity:0.8;stroke:#ffffff;stroke-opacity:0.8;stroke-width:3;" x="356.257107" xlink:href="#C0_0_c3e259214f" y="481.879481"/>
    </g>
    <g clip-path="url(#p8cc554b0c7)">
     <use style="fill:#1e90ff;fill-opacity:0.8;stroke:#ffffff;stroke-opacity:0.8;stroke-width:3;" x="740.245214" xlink:href="#C0_0_c3e259214f" y="458.347013"/>
    </g>
    <g clip-path="url(#p8cc554b0c7)">
     <use style="fill:#1e90ff;fill-opacity:0.8;stroke:#ffffff;stroke-opacity:0.8;stroke-width:3;" x="740.245214" xlink:href="#C0_0_c3e259214f" y="474.81974"/>
    </g>
    <g clip-path="url(#p8cc554b0c7)">
     <use style="fill:#1e90ff;fill-opacity:0.8;stroke:#ffffff;stroke-opacity:0.8;stroke-width:3;" x="740.245214" xlink:href="#C0_0_c3e259214f" y="481.879481"/>
    </g>
    <g clip-path="url(#p8cc554b0c7)">
     <use style="fill:#1e90ff;fill-opacity:0.8;stroke:#ffffff;stroke-opacity:0.8;stroke-width:3;" x="740.245214" xlink:href="#C0_0_c3e259214f" y="481.879481"/>
    </g>
    <g clip-path="url(#p8cc554b0c7)">
     <use style="fill:#1e90ff;fill-opacity:0.8;stroke:#ffffff;stroke-opacity:0.8;stroke-width:3;" x="740.245214" xlink:href="#C0_0_c3e259214f" y="481.879481"/>
    </g>
    <g clip-path="url(#p8cc554b0c7)">
     <use style="fill:#40e0d0;fill-opacity:0.8;stroke:#ffffff;stroke-opacity:0.8;stroke-width:3;" x="356.257107" xlink:href="#C0_0_c3e259214f" y="481.879481"/>
    </g>
    <g clip-path="url(#p8cc554b0c7)">
     <use style="fill:#40e0d0;fill-opacity:0.8;stroke:#ffffff;stroke-opacity:0.8;stroke-width:3;" x="356.257107" xlink:href="#C0_0_c3e259214f" y="481.879481"/>
    </g>
    <g clip-path="url(#p8cc554b0c7)">
     <use style="fill:#40e0d0;fill-opacity:0.8;stroke:#ffffff;stroke-opacity:0.8;stroke-width:3;" x="356.257107" xlink:href="#C0_0_c3e259214f" y="453.640519"/>
    </g>
    <g clip-path="url(#p8cc554b0c7)">
     <use style="fill:#40e0d0;fill-opacity:0.8;stroke:#ffffff;stroke-opacity:0.8;stroke-width:3;" x="740.245214" xlink:href="#C0_0_c3e259214f" y="444.227532"/>
    </g>
    <g clip-path="url(#p8cc554b0c7)">
     <use style="fill:#40e0d0;fill-opacity:0.8;stroke:#ffffff;stroke-opacity:0.8;stroke-width:3;" x="740.245214" xlink:href="#C0_0_c3e259214f" y="88.887273"/>
    </g>
    <g clip-path="url(#p8cc554b0c7)">
     <use style="fill:#40e0d0;fill-opacity:0.8;stroke:#ffffff;stroke-opacity:0.8;stroke-width:3;" x="740.245214" xlink:href="#C0_0_c3e259214f" y="481.879481"/>
    </g>
    <g clip-path="url(#p8cc554b0c7)">
     <use style="fill:#40e0d0;fill-opacity:0.8;stroke:#ffffff;stroke-opacity:0.8;stroke-width:3;" x="740.245214" xlink:href="#C0_0_c3e259214f" y="484.232727"/>
    </g>
    <g clip-path="url(#p8cc554b0c7)">
     <use style="fill:#40e0d0;fill-opacity:0.8;stroke:#ffffff;stroke-opacity:0.8;stroke-width:3;" x="740.245214" xlink:href="#C0_0_c3e259214f" y="481.879481"/>
    </g>
    <g clip-path="url(#p8cc554b0c7)">
     <use style="fill:#40e0d0;fill-opacity:0.8;stroke:#ffffff;stroke-opacity:0.8;stroke-width:3;" x="356.257107" xlink:href="#C0_0_c3e259214f" y="481.879481"/>
    </g>
    <g clip-path="url(#p8cc554b0c7)">
     <use style="fill:#40e0d0;fill-opacity:0.8;stroke:#ffffff;stroke-opacity:0.8;stroke-width:3;" x="356.257107" xlink:href="#C0_0_c3e259214f" y="481.879481"/>
    </g>
    <g clip-path="url(#p8cc554b0c7)">
     <use style="fill:#40e0d0;fill-opacity:0.8;stroke:#ffffff;stroke-opacity:0.8;stroke-width:3;" x="356.257107" xlink:href="#C0_0_c3e259214f" y="481.879481"/>
    </g>
    <g clip-path="url(#p8cc554b0c7)">
     <use style="fill:#40e0d0;fill-opacity:0.8;stroke:#ffffff;stroke-opacity:0.8;stroke-width:3;" x="740.245214" xlink:href="#C0_0_c3e259214f" y="455.993766"/>
    </g>
    <g clip-path="url(#p8cc554b0c7)">
     <use style="fill:#40e0d0;fill-opacity:0.8;stroke:#ffffff;stroke-opacity:0.8;stroke-width:3;" x="740.245214" xlink:href="#C0_0_c3e259214f" y="314.798961"/>
    </g>
    <g clip-path="url(#p8cc554b0c7)">
     <use style="fill:#40e0d0;fill-opacity:0.8;stroke:#ffffff;stroke-opacity:0.8;stroke-width:3;" x="740.245214" xlink:href="#C0_0_c3e259214f" y="481.879481"/>
    </g>
    <g clip-path="url(#p8cc554b0c7)">
     <use style="fill:#40e0d0;fill-opacity:0.8;stroke:#ffffff;stroke-opacity:0.8;stroke-width:3;" x="740.245214" xlink:href="#C0_0_c3e259214f" y="479.526234"/>
    </g>
    <g clip-path="url(#p8cc554b0c7)">
     <use style="fill:#40e0d0;fill-opacity:0.8;stroke:#ffffff;stroke-opacity:0.8;stroke-width:3;" x="740.245214" xlink:href="#C0_0_c3e259214f" y="481.879481"/>
    </g>
    <g clip-path="url(#p8cc554b0c7)">
     <use style="fill:#40e0d0;fill-opacity:0.8;stroke:#ffffff;stroke-opacity:0.8;stroke-width:3;" x="356.257107" xlink:href="#C0_0_c3e259214f" y="481.879481"/>
    </g>
    <g clip-path="url(#p8cc554b0c7)">
     <use style="fill:#40e0d0;fill-opacity:0.8;stroke:#ffffff;stroke-opacity:0.8;stroke-width:3;" x="356.257107" xlink:href="#C0_0_c3e259214f" y="481.879481"/>
    </g>
    <g clip-path="url(#p8cc554b0c7)">
     <use style="fill:#40e0d0;fill-opacity:0.8;stroke:#ffffff;stroke-opacity:0.8;stroke-width:3;" x="356.257107" xlink:href="#C0_0_c3e259214f" y="481.879481"/>
    </g>
    <g clip-path="url(#p8cc554b0c7)">
     <use style="fill:#40e0d0;fill-opacity:0.8;stroke:#ffffff;stroke-opacity:0.8;stroke-width:3;" x="740.245214" xlink:href="#C0_0_c3e259214f" y="460.70026"/>
    </g>
    <g clip-path="url(#p8cc554b0c7)">
     <use style="fill:#40e0d0;fill-opacity:0.8;stroke:#ffffff;stroke-opacity:0.8;stroke-width:3;" x="740.245214" xlink:href="#C0_0_c3e259214f" y="446.580779"/>
    </g>
    <g clip-path="url(#p8cc554b0c7)">
     <use style="fill:#40e0d0;fill-opacity:0.8;stroke:#ffffff;stroke-opacity:0.8;stroke-width:3;" x="740.245214" xlink:href="#C0_0_c3e259214f" y="481.879481"/>
    </g>
    <g clip-path="url(#p8cc554b0c7)">
     <use style="fill:#40e0d0;fill-opacity:0.8;stroke:#ffffff;stroke-opacity:0.8;stroke-width:3;" x="740.245214" xlink:href="#C0_0_c3e259214f" y="481.879481"/>
    </g>
    <g clip-path="url(#p8cc554b0c7)">
     <use style="fill:#40e0d0;fill-opacity:0.8;stroke:#ffffff;stroke-opacity:0.8;stroke-width:3;" x="740.245214" xlink:href="#C0_0_c3e259214f" y="481.879481"/>
    </g>
    <g clip-path="url(#p8cc554b0c7)">
     <use style="fill:#008000;fill-opacity:0.8;stroke:#ffffff;stroke-opacity:0.8;stroke-width:3;" x="138.436364" xlink:href="#C0_0_c3e259214f" y="465.406753"/>
    </g>
    <g clip-path="url(#p8cc554b0c7)">
     <use style="fill:#008000;fill-opacity:0.8;stroke:#ffffff;stroke-opacity:0.8;stroke-width:3;" x="138.436364" xlink:href="#C0_0_c3e259214f" y="481.879481"/>
    </g>
    <g clip-path="url(#p8cc554b0c7)">
     <use style="fill:#008000;fill-opacity:0.8;stroke:#ffffff;stroke-opacity:0.8;stroke-width:3;" x="747.163636" xlink:href="#C0_0_c3e259214f" y="460.70026"/>
    </g>
    <g clip-path="url(#p8cc554b0c7)">
     <use style="fill:#008000;fill-opacity:0.8;stroke:#ffffff;stroke-opacity:0.8;stroke-width:3;" x="747.163636" xlink:href="#C0_0_c3e259214f" y="364.217143"/>
    </g>
    <g clip-path="url(#p8cc554b0c7)">
     <use style="fill:#008000;fill-opacity:0.8;stroke:#ffffff;stroke-opacity:0.8;stroke-width:3;" x="747.163636" xlink:href="#C0_0_c3e259214f" y="380.68987"/>
    </g>
    <g clip-path="url(#p8cc554b0c7)">
     <use style="fill:#008000;fill-opacity:0.8;stroke:#ffffff;stroke-opacity:0.8;stroke-width:3;" x="747.163636" xlink:href="#C0_0_c3e259214f" y="425.401558"/>
    </g>
    <g clip-path="url(#p8cc554b0c7)">
     <use style="fill:#008000;fill-opacity:0.8;stroke:#ffffff;stroke-opacity:0.8;stroke-width:3;" x="640.851586" xlink:href="#C0_0_c3e259214f" y="479.526234"/>
    </g>
    <g clip-path="url(#p8cc554b0c7)">
     <use style="fill:#008000;fill-opacity:0.8;stroke:#ffffff;stroke-opacity:0.8;stroke-width:3;" x="640.851586" xlink:href="#C0_0_c3e259214f" y="481.879481"/>
    </g>
    <g clip-path="url(#p8cc554b0c7)">
     <use style="fill:#008000;fill-opacity:0.8;stroke:#ffffff;stroke-opacity:0.8;stroke-width:3;" x="138.436364" xlink:href="#C0_0_c3e259214f" y="474.81974"/>
    </g>
    <g clip-path="url(#p8cc554b0c7)">
     <use style="fill:#008000;fill-opacity:0.8;stroke:#ffffff;stroke-opacity:0.8;stroke-width:3;" x="138.436364" xlink:href="#C0_0_c3e259214f" y="460.70026"/>
    </g>
    <g clip-path="url(#p8cc554b0c7)">
     <use style="fill:#008000;fill-opacity:0.8;stroke:#ffffff;stroke-opacity:0.8;stroke-width:3;" x="747.163636" xlink:href="#C0_0_c3e259214f" y="460.70026"/>
    </g>
    <g clip-path="url(#p8cc554b0c7)">
     <use style="fill:#008000;fill-opacity:0.8;stroke:#ffffff;stroke-opacity:0.8;stroke-width:3;" x="747.163636" xlink:href="#C0_0_c3e259214f" y="451.287273"/>
    </g>
    <g clip-path="url(#p8cc554b0c7)">
     <use style="fill:#008000;fill-opacity:0.8;stroke:#ffffff;stroke-opacity:0.8;stroke-width:3;" x="747.163636" xlink:href="#C0_0_c3e259214f" y="387.74961"/>
    </g>
    <g clip-path="url(#p8cc554b0c7)">
     <use style="fill:#008000;fill-opacity:0.8;stroke:#ffffff;stroke-opacity:0.8;stroke-width:3;" x="747.163636" xlink:href="#C0_0_c3e259214f" y="481.879481"/>
    </g>
    <g clip-path="url(#p8cc554b0c7)">
     <use style="fill:#008000;fill-opacity:0.8;stroke:#ffffff;stroke-opacity:0.8;stroke-width:3;" x="640.851586" xlink:href="#C0_0_c3e259214f" y="467.76"/>
    </g>
    <g clip-path="url(#p8cc554b0c7)">
     <use style="fill:#008000;fill-opacity:0.8;stroke:#ffffff;stroke-opacity:0.8;stroke-width:3;" x="640.851586" xlink:href="#C0_0_c3e259214f" y="415.988571"/>
    </g>
    <g clip-path="url(#p8cc554b0c7)">
     <use style="fill:#008000;fill-opacity:0.8;stroke:#ffffff;stroke-opacity:0.8;stroke-width:3;" x="138.436364" xlink:href="#C0_0_c3e259214f" y="474.81974"/>
    </g>
    <g clip-path="url(#p8cc554b0c7)">
     <use style="fill:#008000;fill-opacity:0.8;stroke:#ffffff;stroke-opacity:0.8;stroke-width:3;" x="138.436364" xlink:href="#C0_0_c3e259214f" y="481.879481"/>
    </g>
    <g clip-path="url(#p8cc554b0c7)">
     <use style="fill:#008000;fill-opacity:0.8;stroke:#ffffff;stroke-opacity:0.8;stroke-width:3;" x="747.163636" xlink:href="#C0_0_c3e259214f" y="413.635325"/>
    </g>
    <g clip-path="url(#p8cc554b0c7)">
     <use style="fill:#008000;fill-opacity:0.8;stroke:#ffffff;stroke-opacity:0.8;stroke-width:3;" x="747.163636" xlink:href="#C0_0_c3e259214f" y="246.554805"/>
    </g>
    <g clip-path="url(#p8cc554b0c7)">
     <use style="fill:#008000;fill-opacity:0.8;stroke:#ffffff;stroke-opacity:0.8;stroke-width:3;" x="747.163636" xlink:href="#C0_0_c3e259214f" y="392.456104"/>
    </g>
    <g clip-path="url(#p8cc554b0c7)">
     <use style="fill:#008000;fill-opacity:0.8;stroke:#ffffff;stroke-opacity:0.8;stroke-width:3;" x="747.163636" xlink:href="#C0_0_c3e259214f" y="479.526234"/>
    </g>
    <g clip-path="url(#p8cc554b0c7)">
     <use style="fill:#008000;fill-opacity:0.8;stroke:#ffffff;stroke-opacity:0.8;stroke-width:3;" x="640.851586" xlink:href="#C0_0_c3e259214f" y="481.879481"/>
    </g>
    <g clip-path="url(#p8cc554b0c7)">
     <use style="fill:#008000;fill-opacity:0.8;stroke:#ffffff;stroke-opacity:0.8;stroke-width:3;" x="640.851586" xlink:href="#C0_0_c3e259214f" y="474.81974"/>
    </g>
    <g clip-path="url(#p8cc554b0c7)">
     <use style="fill:#bfbf00;fill-opacity:0.8;stroke:#ffffff;stroke-opacity:0.8;stroke-width:3;" x="138.436364" xlink:href="#C0_0_c3e259214f" y="352.450909"/>
    </g>
    <g clip-path="url(#p8cc554b0c7)">
     <use style="fill:#bfbf00;fill-opacity:0.8;stroke:#ffffff;stroke-opacity:0.8;stroke-width:3;" x="138.436364" xlink:href="#C0_0_c3e259214f" y="477.172987"/>
    </g>
    <g clip-path="url(#p8cc554b0c7)">
     <use style="fill:#bfbf00;fill-opacity:0.8;stroke:#ffffff;stroke-opacity:0.8;stroke-width:3;" x="747.163636" xlink:href="#C0_0_c3e259214f" y="437.167792"/>
    </g>
    <g clip-path="url(#p8cc554b0c7)">
     <use style="fill:#bfbf00;fill-opacity:0.8;stroke:#ffffff;stroke-opacity:0.8;stroke-width:3;" x="747.163636" xlink:href="#C0_0_c3e259214f" y="455.993766"/>
    </g>
    <g clip-path="url(#p8cc554b0c7)">
     <use style="fill:#bfbf00;fill-opacity:0.8;stroke:#ffffff;stroke-opacity:0.8;stroke-width:3;" x="747.163636" xlink:href="#C0_0_c3e259214f" y="451.287273"/>
    </g>
    <g clip-path="url(#p8cc554b0c7)">
     <use style="fill:#bfbf00;fill-opacity:0.8;stroke:#ffffff;stroke-opacity:0.8;stroke-width:3;" x="747.163636" xlink:href="#C0_0_c3e259214f" y="375.983377"/>
    </g>
    <g clip-path="url(#p8cc554b0c7)">
     <use style="fill:#bfbf00;fill-opacity:0.8;stroke:#ffffff;stroke-opacity:0.8;stroke-width:3;" x="640.851586" xlink:href="#C0_0_c3e259214f" y="474.81974"/>
    </g>
    <g clip-path="url(#p8cc554b0c7)">
     <use style="fill:#bfbf00;fill-opacity:0.8;stroke:#ffffff;stroke-opacity:0.8;stroke-width:3;" x="640.851586" xlink:href="#C0_0_c3e259214f" y="481.879481"/>
    </g>
    <g clip-path="url(#p8cc554b0c7)">
     <use style="fill:#bfbf00;fill-opacity:0.8;stroke:#ffffff;stroke-opacity:0.8;stroke-width:3;" x="138.436364" xlink:href="#C0_0_c3e259214f" y="474.81974"/>
    </g>
    <g clip-path="url(#p8cc554b0c7)">
     <use style="fill:#bfbf00;fill-opacity:0.8;stroke:#ffffff;stroke-opacity:0.8;stroke-width:3;" x="138.436364" xlink:href="#C0_0_c3e259214f" y="430.108052"/>
    </g>
    <g clip-path="url(#p8cc554b0c7)">
     <use style="fill:#bfbf00;fill-opacity:0.8;stroke:#ffffff;stroke-opacity:0.8;stroke-width:3;" x="747.163636" xlink:href="#C0_0_c3e259214f" y="460.70026"/>
    </g>
    <g clip-path="url(#p8cc554b0c7)">
     <use style="fill:#bfbf00;fill-opacity:0.8;stroke:#ffffff;stroke-opacity:0.8;stroke-width:3;" x="747.163636" xlink:href="#C0_0_c3e259214f" y="477.172987"/>
    </g>
    <g clip-path="url(#p8cc554b0c7)">
     <use style="fill:#bfbf00;fill-opacity:0.8;stroke:#ffffff;stroke-opacity:0.8;stroke-width:3;" x="747.163636" xlink:href="#C0_0_c3e259214f" y="425.401558"/>
    </g>
    <g clip-path="url(#p8cc554b0c7)">
     <use style="fill:#bfbf00;fill-opacity:0.8;stroke:#ffffff;stroke-opacity:0.8;stroke-width:3;" x="747.163636" xlink:href="#C0_0_c3e259214f" y="479.526234"/>
    </g>
    <g clip-path="url(#p8cc554b0c7)">
     <use style="fill:#bfbf00;fill-opacity:0.8;stroke:#ffffff;stroke-opacity:0.8;stroke-width:3;" x="640.851586" xlink:href="#C0_0_c3e259214f" y="474.81974"/>
    </g>
    <g clip-path="url(#p8cc554b0c7)">
     <use style="fill:#bfbf00;fill-opacity:0.8;stroke:#ffffff;stroke-opacity:0.8;stroke-width:3;" x="640.851586" xlink:href="#C0_0_c3e259214f" y="420.695065"/>
    </g>
    <g clip-path="url(#p8cc554b0c7)">
     <use style="fill:#bfbf00;fill-opacity:0.8;stroke:#ffffff;stroke-opacity:0.8;stroke-width:3;" x="138.436364" xlink:href="#C0_0_c3e259214f" y="474.81974"/>
    </g>
    <g clip-path="url(#p8cc554b0c7)">
     <use style="fill:#bfbf00;fill-opacity:0.8;stroke:#ffffff;stroke-opacity:0.8;stroke-width:3;" x="138.436364" xlink:href="#C0_0_c3e259214f" y="481.879481"/>
    </g>
    <g clip-path="url(#p8cc554b0c7)">
     <use style="fill:#bfbf00;fill-opacity:0.8;stroke:#ffffff;stroke-opacity:0.8;stroke-width:3;" x="747.163636" xlink:href="#C0_0_c3e259214f" y="460.70026"/>
    </g>
    <g clip-path="url(#p8cc554b0c7)">
     <use style="fill:#bfbf00;fill-opacity:0.8;stroke:#ffffff;stroke-opacity:0.8;stroke-width:3;" x="747.163636" xlink:href="#C0_0_c3e259214f" y="244.201558"/>
    </g>
    <g clip-path="url(#p8cc554b0c7)">
     <use style="fill:#bfbf00;fill-opacity:0.8;stroke:#ffffff;stroke-opacity:0.8;stroke-width:3;" x="747.163636" xlink:href="#C0_0_c3e259214f" y="481.879481"/>
    </g>
    <g clip-path="url(#p8cc554b0c7)">
     <use style="fill:#bfbf00;fill-opacity:0.8;stroke:#ffffff;stroke-opacity:0.8;stroke-width:3;" x="747.163636" xlink:href="#C0_0_c3e259214f" y="481.879481"/>
    </g>
    <g clip-path="url(#p8cc554b0c7)">
     <use style="fill:#bfbf00;fill-opacity:0.8;stroke:#ffffff;stroke-opacity:0.8;stroke-width:3;" x="640.851586" xlink:href="#C0_0_c3e259214f" y="481.879481"/>
    </g>
    <g clip-path="url(#p8cc554b0c7)">
     <use style="fill:#bfbf00;fill-opacity:0.8;stroke:#ffffff;stroke-opacity:0.8;stroke-width:3;" x="640.851586" xlink:href="#C0_0_c3e259214f" y="481.879481"/>
    </g>
   </g>
   <g id="PathCollection_2"/>
   <g id="PathCollection_3"/>
   <g id="PathCollection_4"/>
   <g id="PathCollection_5"/>
   <g id="PathCollection_6"/>
   <g id="matplotlib.axis_1">
    <g id="xtick_1">
     <g id="line2d_1">
      <defs>
       <path d="M 0 0 
L 0 3.5 
" id="m97866f0456" style="stroke:#000000;stroke-width:0.8;"/>
      </defs>
      <g>
       <use style="stroke:#000000;stroke-width:0.8;" x="155.622852" xlink:href="#m97866f0456" y="504"/>
      </g>
     </g>
     <g id="text_1">
      <!-- 45000 -->
      <g transform="translate(139.716602 518.598438)scale(0.1 -0.1)">
       <defs>
        <path d="M 37.796875 64.3125 
L 12.890625 25.390625 
L 37.796875 25.390625 
z
M 35.203125 72.90625 
L 47.609375 72.90625 
L 47.609375 25.390625 
L 58.015625 25.390625 
L 58.015625 17.1875 
L 47.609375 17.1875 
L 47.609375 0 
L 37.796875 0 
L 37.796875 17.1875 
L 4.890625 17.1875 
L 4.890625 26.703125 
z
" id="DejaVuSans-52"/>
        <path d="M 10.796875 72.90625 
L 49.515625 72.90625 
L 49.515625 64.59375 
L 19.828125 64.59375 
L 19.828125 46.734375 
Q 21.96875 47.46875 24.109375 47.828125 
Q 26.265625 48.1875 28.421875 48.1875 
Q 40.625 48.1875 47.75 41.5 
Q 54.890625 34.8125 54.890625 23.390625 
Q 54.890625 11.625 47.5625 5.09375 
Q 40.234375 -1.421875 26.90625 -1.421875 
Q 22.3125 -1.421875 17.546875 -0.640625 
Q 12.796875 0.140625 7.71875 1.703125 
L 7.71875 11.625 
Q 12.109375 9.234375 16.796875 8.0625 
Q 21.484375 6.890625 26.703125 6.890625 
Q 35.15625 6.890625 40.078125 11.328125 
Q 45.015625 15.765625 45.015625 23.390625 
Q 45.015625 31 40.078125 35.4375 
Q 35.15625 39.890625 26.703125 39.890625 
Q 22.75 39.890625 18.8125 39.015625 
Q 14.890625 38.140625 10.796875 36.28125 
z
" id="DejaVuSans-53"/>
        <path d="M 31.78125 66.40625 
Q 24.171875 66.40625 20.328125 58.90625 
Q 16.5 51.421875 16.5 36.375 
Q 16.5 21.390625 20.328125 13.890625 
Q 24.171875 6.390625 31.78125 6.390625 
Q 39.453125 6.390625 43.28125 13.890625 
Q 47.125 21.390625 47.125 36.375 
Q 47.125 51.421875 43.28125 58.90625 
Q 39.453125 66.40625 31.78125 66.40625 
z
M 31.78125 74.21875 
Q 44.046875 74.21875 50.515625 64.515625 
Q 56.984375 54.828125 56.984375 36.375 
Q 56.984375 17.96875 50.515625 8.265625 
Q 44.046875 -1.421875 31.78125 -1.421875 
Q 19.53125 -1.421875 13.0625 8.265625 
Q 6.59375 17.96875 6.59375 36.375 
Q 6.59375 54.828125 13.0625 64.515625 
Q 19.53125 74.21875 31.78125 74.21875 
z
" id="DejaVuSans-48"/>
       </defs>
       <use xlink:href="#DejaVuSans-52"/>
       <use x="63.623047" xlink:href="#DejaVuSans-53"/>
       <use x="127.246094" xlink:href="#DejaVuSans-48"/>
       <use x="190.869141" xlink:href="#DejaVuSans-48"/>
       <use x="254.492188" xlink:href="#DejaVuSans-48"/>
      </g>
     </g>
    </g>
    <g id="xtick_2">
     <g id="line2d_2">
      <g>
       <use style="stroke:#000000;stroke-width:0.8;" x="233.885551" xlink:href="#m97866f0456" y="504"/>
      </g>
     </g>
     <g id="text_2">
      <!-- 47500 -->
      <g transform="translate(217.979301 518.598438)scale(0.1 -0.1)">
       <defs>
        <path d="M 8.203125 72.90625 
L 55.078125 72.90625 
L 55.078125 68.703125 
L 28.609375 0 
L 18.3125 0 
L 43.21875 64.59375 
L 8.203125 64.59375 
z
" id="DejaVuSans-55"/>
       </defs>
       <use xlink:href="#DejaVuSans-52"/>
       <use x="63.623047" xlink:href="#DejaVuSans-55"/>
       <use x="127.246094" xlink:href="#DejaVuSans-53"/>
       <use x="190.869141" xlink:href="#DejaVuSans-48"/>
       <use x="254.492188" xlink:href="#DejaVuSans-48"/>
      </g>
     </g>
    </g>
    <g id="xtick_3">
     <g id="line2d_3">
      <g>
       <use style="stroke:#000000;stroke-width:0.8;" x="312.14825" xlink:href="#m97866f0456" y="504"/>
      </g>
     </g>
     <g id="text_3">
      <!-- 50000 -->
      <g transform="translate(296.242 518.598438)scale(0.1 -0.1)">
       <use xlink:href="#DejaVuSans-53"/>
       <use x="63.623047" xlink:href="#DejaVuSans-48"/>
       <use x="127.246094" xlink:href="#DejaVuSans-48"/>
       <use x="190.869141" xlink:href="#DejaVuSans-48"/>
       <use x="254.492188" xlink:href="#DejaVuSans-48"/>
      </g>
     </g>
    </g>
    <g id="xtick_4">
     <g id="line2d_4">
      <g>
       <use style="stroke:#000000;stroke-width:0.8;" x="390.410949" xlink:href="#m97866f0456" y="504"/>
      </g>
     </g>
     <g id="text_4">
      <!-- 52500 -->
      <g transform="translate(374.504699 518.598438)scale(0.1 -0.1)">
       <defs>
        <path d="M 19.1875 8.296875 
L 53.609375 8.296875 
L 53.609375 0 
L 7.328125 0 
L 7.328125 8.296875 
Q 12.9375 14.109375 22.625 23.890625 
Q 32.328125 33.6875 34.8125 36.53125 
Q 39.546875 41.84375 41.421875 45.53125 
Q 43.3125 49.21875 43.3125 52.78125 
Q 43.3125 58.59375 39.234375 62.25 
Q 35.15625 65.921875 28.609375 65.921875 
Q 23.96875 65.921875 18.8125 64.3125 
Q 13.671875 62.703125 7.8125 59.421875 
L 7.8125 69.390625 
Q 13.765625 71.78125 18.9375 73 
Q 24.125 74.21875 28.421875 74.21875 
Q 39.75 74.21875 46.484375 68.546875 
Q 53.21875 62.890625 53.21875 53.421875 
Q 53.21875 48.921875 51.53125 44.890625 
Q 49.859375 40.875 45.40625 35.40625 
Q 44.1875 33.984375 37.640625 27.21875 
Q 31.109375 20.453125 19.1875 8.296875 
z
" id="DejaVuSans-50"/>
       </defs>
       <use xlink:href="#DejaVuSans-53"/>
       <use x="63.623047" xlink:href="#DejaVuSans-50"/>
       <use x="127.246094" xlink:href="#DejaVuSans-53"/>
       <use x="190.869141" xlink:href="#DejaVuSans-48"/>
       <use x="254.492188" xlink:href="#DejaVuSans-48"/>
      </g>
     </g>
    </g>
    <g id="xtick_5">
     <g id="line2d_5">
      <g>
       <use style="stroke:#000000;stroke-width:0.8;" x="468.673648" xlink:href="#m97866f0456" y="504"/>
      </g>
     </g>
     <g id="text_5">
      <!-- 55000 -->
      <g transform="translate(452.767398 518.598438)scale(0.1 -0.1)">
       <use xlink:href="#DejaVuSans-53"/>
       <use x="63.623047" xlink:href="#DejaVuSans-53"/>
       <use x="127.246094" xlink:href="#DejaVuSans-48"/>
       <use x="190.869141" xlink:href="#DejaVuSans-48"/>
       <use x="254.492188" xlink:href="#DejaVuSans-48"/>
      </g>
     </g>
    </g>
    <g id="xtick_6">
     <g id="line2d_6">
      <g>
       <use style="stroke:#000000;stroke-width:0.8;" x="546.936347" xlink:href="#m97866f0456" y="504"/>
      </g>
     </g>
     <g id="text_6">
      <!-- 57500 -->
      <g transform="translate(531.030097 518.598438)scale(0.1 -0.1)">
       <use xlink:href="#DejaVuSans-53"/>
       <use x="63.623047" xlink:href="#DejaVuSans-55"/>
       <use x="127.246094" xlink:href="#DejaVuSans-53"/>
       <use x="190.869141" xlink:href="#DejaVuSans-48"/>
       <use x="254.492188" xlink:href="#DejaVuSans-48"/>
      </g>
     </g>
    </g>
    <g id="xtick_7">
     <g id="line2d_7">
      <g>
       <use style="stroke:#000000;stroke-width:0.8;" x="625.199046" xlink:href="#m97866f0456" y="504"/>
      </g>
     </g>
     <g id="text_7">
      <!-- 60000 -->
      <g transform="translate(609.292796 518.598438)scale(0.1 -0.1)">
       <defs>
        <path d="M 33.015625 40.375 
Q 26.375 40.375 22.484375 35.828125 
Q 18.609375 31.296875 18.609375 23.390625 
Q 18.609375 15.53125 22.484375 10.953125 
Q 26.375 6.390625 33.015625 6.390625 
Q 39.65625 6.390625 43.53125 10.953125 
Q 47.40625 15.53125 47.40625 23.390625 
Q 47.40625 31.296875 43.53125 35.828125 
Q 39.65625 40.375 33.015625 40.375 
z
M 52.59375 71.296875 
L 52.59375 62.3125 
Q 48.875 64.0625 45.09375 64.984375 
Q 41.3125 65.921875 37.59375 65.921875 
Q 27.828125 65.921875 22.671875 59.328125 
Q 17.53125 52.734375 16.796875 39.40625 
Q 19.671875 43.65625 24.015625 45.921875 
Q 28.375 48.1875 33.59375 48.1875 
Q 44.578125 48.1875 50.953125 41.515625 
Q 57.328125 34.859375 57.328125 23.390625 
Q 57.328125 12.15625 50.6875 5.359375 
Q 44.046875 -1.421875 33.015625 -1.421875 
Q 20.359375 -1.421875 13.671875 8.265625 
Q 6.984375 17.96875 6.984375 36.375 
Q 6.984375 53.65625 15.1875 63.9375 
Q 23.390625 74.21875 37.203125 74.21875 
Q 40.921875 74.21875 44.703125 73.484375 
Q 48.484375 72.75 52.59375 71.296875 
z
" id="DejaVuSans-54"/>
       </defs>
       <use xlink:href="#DejaVuSans-54"/>
       <use x="63.623047" xlink:href="#DejaVuSans-48"/>
       <use x="127.246094" xlink:href="#DejaVuSans-48"/>
       <use x="190.869141" xlink:href="#DejaVuSans-48"/>
       <use x="254.492188" xlink:href="#DejaVuSans-48"/>
      </g>
     </g>
    </g>
    <g id="xtick_8">
     <g id="line2d_8">
      <g>
       <use style="stroke:#000000;stroke-width:0.8;" x="703.461745" xlink:href="#m97866f0456" y="504"/>
      </g>
     </g>
     <g id="text_8">
      <!-- 62500 -->
      <g transform="translate(687.555495 518.598438)scale(0.1 -0.1)">
       <use xlink:href="#DejaVuSans-54"/>
       <use x="63.623047" xlink:href="#DejaVuSans-50"/>
       <use x="127.246094" xlink:href="#DejaVuSans-53"/>
       <use x="190.869141" xlink:href="#DejaVuSans-48"/>
       <use x="254.492188" xlink:href="#DejaVuSans-48"/>
      </g>
     </g>
    </g>
    <g id="text_9">
     <!-- Hotel nights sold per month, Swiss federal office of statistics -->
     <g transform="translate(200.0475 552.835625)scale(0.16 -0.16)">
      <defs>
       <path d="M 9.8125 72.90625 
L 19.671875 72.90625 
L 19.671875 43.015625 
L 55.515625 43.015625 
L 55.515625 72.90625 
L 65.375 72.90625 
L 65.375 0 
L 55.515625 0 
L 55.515625 34.71875 
L 19.671875 34.71875 
L 19.671875 0 
L 9.8125 0 
z
" id="DejaVuSans-72"/>
       <path d="M 30.609375 48.390625 
Q 23.390625 48.390625 19.1875 42.75 
Q 14.984375 37.109375 14.984375 27.296875 
Q 14.984375 17.484375 19.15625 11.84375 
Q 23.34375 6.203125 30.609375 6.203125 
Q 37.796875 6.203125 41.984375 11.859375 
Q 46.1875 17.53125 46.1875 27.296875 
Q 46.1875 37.015625 41.984375 42.703125 
Q 37.796875 48.390625 30.609375 48.390625 
z
M 30.609375 56 
Q 42.328125 56 49.015625 48.375 
Q 55.71875 40.765625 55.71875 27.296875 
Q 55.71875 13.875 49.015625 6.21875 
Q 42.328125 -1.421875 30.609375 -1.421875 
Q 18.84375 -1.421875 12.171875 6.21875 
Q 5.515625 13.875 5.515625 27.296875 
Q 5.515625 40.765625 12.171875 48.375 
Q 18.84375 56 30.609375 56 
z
" id="DejaVuSans-111"/>
       <path d="M 18.3125 70.21875 
L 18.3125 54.6875 
L 36.8125 54.6875 
L 36.8125 47.703125 
L 18.3125 47.703125 
L 18.3125 18.015625 
Q 18.3125 11.328125 20.140625 9.421875 
Q 21.96875 7.515625 27.59375 7.515625 
L 36.8125 7.515625 
L 36.8125 0 
L 27.59375 0 
Q 17.1875 0 13.234375 3.875 
Q 9.28125 7.765625 9.28125 18.015625 
L 9.28125 47.703125 
L 2.6875 47.703125 
L 2.6875 54.6875 
L 9.28125 54.6875 
L 9.28125 70.21875 
z
" id="DejaVuSans-116"/>
       <path d="M 56.203125 29.59375 
L 56.203125 25.203125 
L 14.890625 25.203125 
Q 15.484375 15.921875 20.484375 11.0625 
Q 25.484375 6.203125 34.421875 6.203125 
Q 39.59375 6.203125 44.453125 7.46875 
Q 49.3125 8.734375 54.109375 11.28125 
L 54.109375 2.78125 
Q 49.265625 0.734375 44.1875 -0.34375 
Q 39.109375 -1.421875 33.890625 -1.421875 
Q 20.796875 -1.421875 13.15625 6.1875 
Q 5.515625 13.8125 5.515625 26.8125 
Q 5.515625 40.234375 12.765625 48.109375 
Q 20.015625 56 32.328125 56 
Q 43.359375 56 49.78125 48.890625 
Q 56.203125 41.796875 56.203125 29.59375 
z
M 47.21875 32.234375 
Q 47.125 39.59375 43.09375 43.984375 
Q 39.0625 48.390625 32.421875 48.390625 
Q 24.90625 48.390625 20.390625 44.140625 
Q 15.875 39.890625 15.1875 32.171875 
z
" id="DejaVuSans-101"/>
       <path d="M 9.421875 75.984375 
L 18.40625 75.984375 
L 18.40625 0 
L 9.421875 0 
z
" id="DejaVuSans-108"/>
       <path id="DejaVuSans-32"/>
       <path d="M 54.890625 33.015625 
L 54.890625 0 
L 45.90625 0 
L 45.90625 32.71875 
Q 45.90625 40.484375 42.875 44.328125 
Q 39.84375 48.1875 33.796875 48.1875 
Q 26.515625 48.1875 22.3125 43.546875 
Q 18.109375 38.921875 18.109375 30.90625 
L 18.109375 0 
L 9.078125 0 
L 9.078125 54.6875 
L 18.109375 54.6875 
L 18.109375 46.1875 
Q 21.34375 51.125 25.703125 53.5625 
Q 30.078125 56 35.796875 56 
Q 45.21875 56 50.046875 50.171875 
Q 54.890625 44.34375 54.890625 33.015625 
z
" id="DejaVuSans-110"/>
       <path d="M 9.421875 54.6875 
L 18.40625 54.6875 
L 18.40625 0 
L 9.421875 0 
z
M 9.421875 75.984375 
L 18.40625 75.984375 
L 18.40625 64.59375 
L 9.421875 64.59375 
z
" id="DejaVuSans-105"/>
       <path d="M 45.40625 27.984375 
Q 45.40625 37.75 41.375 43.109375 
Q 37.359375 48.484375 30.078125 48.484375 
Q 22.859375 48.484375 18.828125 43.109375 
Q 14.796875 37.75 14.796875 27.984375 
Q 14.796875 18.265625 18.828125 12.890625 
Q 22.859375 7.515625 30.078125 7.515625 
Q 37.359375 7.515625 41.375 12.890625 
Q 45.40625 18.265625 45.40625 27.984375 
z
M 54.390625 6.78125 
Q 54.390625 -7.171875 48.1875 -13.984375 
Q 42 -20.796875 29.203125 -20.796875 
Q 24.46875 -20.796875 20.265625 -20.09375 
Q 16.0625 -19.390625 12.109375 -17.921875 
L 12.109375 -9.1875 
Q 16.0625 -11.328125 19.921875 -12.34375 
Q 23.78125 -13.375 27.78125 -13.375 
Q 36.625 -13.375 41.015625 -8.765625 
Q 45.40625 -4.15625 45.40625 5.171875 
L 45.40625 9.625 
Q 42.625 4.78125 38.28125 2.390625 
Q 33.9375 0 27.875 0 
Q 17.828125 0 11.671875 7.65625 
Q 5.515625 15.328125 5.515625 27.984375 
Q 5.515625 40.671875 11.671875 48.328125 
Q 17.828125 56 27.875 56 
Q 33.9375 56 38.28125 53.609375 
Q 42.625 51.21875 45.40625 46.390625 
L 45.40625 54.6875 
L 54.390625 54.6875 
z
" id="DejaVuSans-103"/>
       <path d="M 54.890625 33.015625 
L 54.890625 0 
L 45.90625 0 
L 45.90625 32.71875 
Q 45.90625 40.484375 42.875 44.328125 
Q 39.84375 48.1875 33.796875 48.1875 
Q 26.515625 48.1875 22.3125 43.546875 
Q 18.109375 38.921875 18.109375 30.90625 
L 18.109375 0 
L 9.078125 0 
L 9.078125 75.984375 
L 18.109375 75.984375 
L 18.109375 46.1875 
Q 21.34375 51.125 25.703125 53.5625 
Q 30.078125 56 35.796875 56 
Q 45.21875 56 50.046875 50.171875 
Q 54.890625 44.34375 54.890625 33.015625 
z
" id="DejaVuSans-104"/>
       <path d="M 44.28125 53.078125 
L 44.28125 44.578125 
Q 40.484375 46.53125 36.375 47.5 
Q 32.28125 48.484375 27.875 48.484375 
Q 21.1875 48.484375 17.84375 46.4375 
Q 14.5 44.390625 14.5 40.28125 
Q 14.5 37.15625 16.890625 35.375 
Q 19.28125 33.59375 26.515625 31.984375 
L 29.59375 31.296875 
Q 39.15625 29.25 43.1875 25.515625 
Q 47.21875 21.78125 47.21875 15.09375 
Q 47.21875 7.46875 41.1875 3.015625 
Q 35.15625 -1.421875 24.609375 -1.421875 
Q 20.21875 -1.421875 15.453125 -0.5625 
Q 10.6875 0.296875 5.421875 2 
L 5.421875 11.28125 
Q 10.40625 8.6875 15.234375 7.390625 
Q 20.0625 6.109375 24.8125 6.109375 
Q 31.15625 6.109375 34.5625 8.28125 
Q 37.984375 10.453125 37.984375 14.40625 
Q 37.984375 18.0625 35.515625 20.015625 
Q 33.0625 21.96875 24.703125 23.78125 
L 21.578125 24.515625 
Q 13.234375 26.265625 9.515625 29.90625 
Q 5.8125 33.546875 5.8125 39.890625 
Q 5.8125 47.609375 11.28125 51.796875 
Q 16.75 56 26.8125 56 
Q 31.78125 56 36.171875 55.265625 
Q 40.578125 54.546875 44.28125 53.078125 
z
" id="DejaVuSans-115"/>
       <path d="M 45.40625 46.390625 
L 45.40625 75.984375 
L 54.390625 75.984375 
L 54.390625 0 
L 45.40625 0 
L 45.40625 8.203125 
Q 42.578125 3.328125 38.25 0.953125 
Q 33.9375 -1.421875 27.875 -1.421875 
Q 17.96875 -1.421875 11.734375 6.484375 
Q 5.515625 14.40625 5.515625 27.296875 
Q 5.515625 40.1875 11.734375 48.09375 
Q 17.96875 56 27.875 56 
Q 33.9375 56 38.25 53.625 
Q 42.578125 51.265625 45.40625 46.390625 
z
M 14.796875 27.296875 
Q 14.796875 17.390625 18.875 11.75 
Q 22.953125 6.109375 30.078125 6.109375 
Q 37.203125 6.109375 41.296875 11.75 
Q 45.40625 17.390625 45.40625 27.296875 
Q 45.40625 37.203125 41.296875 42.84375 
Q 37.203125 48.484375 30.078125 48.484375 
Q 22.953125 48.484375 18.875 42.84375 
Q 14.796875 37.203125 14.796875 27.296875 
z
" id="DejaVuSans-100"/>
       <path d="M 18.109375 8.203125 
L 18.109375 -20.796875 
L 9.078125 -20.796875 
L 9.078125 54.6875 
L 18.109375 54.6875 
L 18.109375 46.390625 
Q 20.953125 51.265625 25.265625 53.625 
Q 29.59375 56 35.59375 56 
Q 45.5625 56 51.78125 48.09375 
Q 58.015625 40.1875 58.015625 27.296875 
Q 58.015625 14.40625 51.78125 6.484375 
Q 45.5625 -1.421875 35.59375 -1.421875 
Q 29.59375 -1.421875 25.265625 0.953125 
Q 20.953125 3.328125 18.109375 8.203125 
z
M 48.6875 27.296875 
Q 48.6875 37.203125 44.609375 42.84375 
Q 40.53125 48.484375 33.40625 48.484375 
Q 26.265625 48.484375 22.1875 42.84375 
Q 18.109375 37.203125 18.109375 27.296875 
Q 18.109375 17.390625 22.1875 11.75 
Q 26.265625 6.109375 33.40625 6.109375 
Q 40.53125 6.109375 44.609375 11.75 
Q 48.6875 17.390625 48.6875 27.296875 
z
" id="DejaVuSans-112"/>
       <path d="M 41.109375 46.296875 
Q 39.59375 47.171875 37.8125 47.578125 
Q 36.03125 48 33.890625 48 
Q 26.265625 48 22.1875 43.046875 
Q 18.109375 38.09375 18.109375 28.8125 
L 18.109375 0 
L 9.078125 0 
L 9.078125 54.6875 
L 18.109375 54.6875 
L 18.109375 46.1875 
Q 20.953125 51.171875 25.484375 53.578125 
Q 30.03125 56 36.53125 56 
Q 37.453125 56 38.578125 55.875 
Q 39.703125 55.765625 41.0625 55.515625 
z
" id="DejaVuSans-114"/>
       <path d="M 52 44.1875 
Q 55.375 50.25 60.0625 53.125 
Q 64.75 56 71.09375 56 
Q 79.640625 56 84.28125 50.015625 
Q 88.921875 44.046875 88.921875 33.015625 
L 88.921875 0 
L 79.890625 0 
L 79.890625 32.71875 
Q 79.890625 40.578125 77.09375 44.375 
Q 74.3125 48.1875 68.609375 48.1875 
Q 61.625 48.1875 57.5625 43.546875 
Q 53.515625 38.921875 53.515625 30.90625 
L 53.515625 0 
L 44.484375 0 
L 44.484375 32.71875 
Q 44.484375 40.625 41.703125 44.40625 
Q 38.921875 48.1875 33.109375 48.1875 
Q 26.21875 48.1875 22.15625 43.53125 
Q 18.109375 38.875 18.109375 30.90625 
L 18.109375 0 
L 9.078125 0 
L 9.078125 54.6875 
L 18.109375 54.6875 
L 18.109375 46.1875 
Q 21.1875 51.21875 25.484375 53.609375 
Q 29.78125 56 35.6875 56 
Q 41.65625 56 45.828125 52.96875 
Q 50 49.953125 52 44.1875 
z
" id="DejaVuSans-109"/>
       <path d="M 11.71875 12.40625 
L 22.015625 12.40625 
L 22.015625 4 
L 14.015625 -11.625 
L 7.71875 -11.625 
L 11.71875 4 
z
" id="DejaVuSans-44"/>
       <path d="M 53.515625 70.515625 
L 53.515625 60.890625 
Q 47.90625 63.578125 42.921875 64.890625 
Q 37.9375 66.21875 33.296875 66.21875 
Q 25.25 66.21875 20.875 63.09375 
Q 16.5 59.96875 16.5 54.203125 
Q 16.5 49.359375 19.40625 46.890625 
Q 22.3125 44.4375 30.421875 42.921875 
L 36.375 41.703125 
Q 47.40625 39.59375 52.65625 34.296875 
Q 57.90625 29 57.90625 20.125 
Q 57.90625 9.515625 50.796875 4.046875 
Q 43.703125 -1.421875 29.984375 -1.421875 
Q 24.8125 -1.421875 18.96875 -0.25 
Q 13.140625 0.921875 6.890625 3.21875 
L 6.890625 13.375 
Q 12.890625 10.015625 18.65625 8.296875 
Q 24.421875 6.59375 29.984375 6.59375 
Q 38.421875 6.59375 43.015625 9.90625 
Q 47.609375 13.234375 47.609375 19.390625 
Q 47.609375 24.75 44.3125 27.78125 
Q 41.015625 30.8125 33.5 32.328125 
L 27.484375 33.5 
Q 16.453125 35.6875 11.515625 40.375 
Q 6.59375 45.0625 6.59375 53.421875 
Q 6.59375 63.09375 13.40625 68.65625 
Q 20.21875 74.21875 32.171875 74.21875 
Q 37.3125 74.21875 42.625 73.28125 
Q 47.953125 72.359375 53.515625 70.515625 
z
" id="DejaVuSans-83"/>
       <path d="M 4.203125 54.6875 
L 13.1875 54.6875 
L 24.421875 12.015625 
L 35.59375 54.6875 
L 46.1875 54.6875 
L 57.421875 12.015625 
L 68.609375 54.6875 
L 77.59375 54.6875 
L 63.28125 0 
L 52.6875 0 
L 40.921875 44.828125 
L 29.109375 0 
L 18.5 0 
z
" id="DejaVuSans-119"/>
       <path d="M 37.109375 75.984375 
L 37.109375 68.5 
L 28.515625 68.5 
Q 23.6875 68.5 21.796875 66.546875 
Q 19.921875 64.59375 19.921875 59.515625 
L 19.921875 54.6875 
L 34.71875 54.6875 
L 34.71875 47.703125 
L 19.921875 47.703125 
L 19.921875 0 
L 10.890625 0 
L 10.890625 47.703125 
L 2.296875 47.703125 
L 2.296875 54.6875 
L 10.890625 54.6875 
L 10.890625 58.5 
Q 10.890625 67.625 15.140625 71.796875 
Q 19.390625 75.984375 28.609375 75.984375 
z
" id="DejaVuSans-102"/>
       <path d="M 34.28125 27.484375 
Q 23.390625 27.484375 19.1875 25 
Q 14.984375 22.515625 14.984375 16.5 
Q 14.984375 11.71875 18.140625 8.90625 
Q 21.296875 6.109375 26.703125 6.109375 
Q 34.1875 6.109375 38.703125 11.40625 
Q 43.21875 16.703125 43.21875 25.484375 
L 43.21875 27.484375 
z
M 52.203125 31.203125 
L 52.203125 0 
L 43.21875 0 
L 43.21875 8.296875 
Q 40.140625 3.328125 35.546875 0.953125 
Q 30.953125 -1.421875 24.3125 -1.421875 
Q 15.921875 -1.421875 10.953125 3.296875 
Q 6 8.015625 6 15.921875 
Q 6 25.140625 12.171875 29.828125 
Q 18.359375 34.515625 30.609375 34.515625 
L 43.21875 34.515625 
L 43.21875 35.40625 
Q 43.21875 41.609375 39.140625 45 
Q 35.0625 48.390625 27.6875 48.390625 
Q 23 48.390625 18.546875 47.265625 
Q 14.109375 46.140625 10.015625 43.890625 
L 10.015625 52.203125 
Q 14.9375 54.109375 19.578125 55.046875 
Q 24.21875 56 28.609375 56 
Q 40.484375 56 46.34375 49.84375 
Q 52.203125 43.703125 52.203125 31.203125 
z
" id="DejaVuSans-97"/>
       <path d="M 48.78125 52.59375 
L 48.78125 44.1875 
Q 44.96875 46.296875 41.140625 47.34375 
Q 37.3125 48.390625 33.40625 48.390625 
Q 24.65625 48.390625 19.8125 42.84375 
Q 14.984375 37.3125 14.984375 27.296875 
Q 14.984375 17.28125 19.8125 11.734375 
Q 24.65625 6.203125 33.40625 6.203125 
Q 37.3125 6.203125 41.140625 7.25 
Q 44.96875 8.296875 48.78125 10.40625 
L 48.78125 2.09375 
Q 45.015625 0.34375 40.984375 -0.53125 
Q 36.96875 -1.421875 32.421875 -1.421875 
Q 20.0625 -1.421875 12.78125 6.34375 
Q 5.515625 14.109375 5.515625 27.296875 
Q 5.515625 40.671875 12.859375 48.328125 
Q 20.21875 56 33.015625 56 
Q 37.15625 56 41.109375 55.140625 
Q 45.0625 54.296875 48.78125 52.59375 
z
" id="DejaVuSans-99"/>
      </defs>
      <use xlink:href="#DejaVuSans-72"/>
      <use x="75.195312" xlink:href="#DejaVuSans-111"/>
      <use x="136.376953" xlink:href="#DejaVuSans-116"/>
      <use x="175.585938" xlink:href="#DejaVuSans-101"/>
      <use x="237.109375" xlink:href="#DejaVuSans-108"/>
      <use x="264.892578" xlink:href="#DejaVuSans-32"/>
      <use x="296.679688" xlink:href="#DejaVuSans-110"/>
      <use x="360.058594" xlink:href="#DejaVuSans-105"/>
      <use x="387.841797" xlink:href="#DejaVuSans-103"/>
      <use x="451.318359" xlink:href="#DejaVuSans-104"/>
      <use x="514.697266" xlink:href="#DejaVuSans-116"/>
      <use x="553.90625" xlink:href="#DejaVuSans-115"/>
      <use x="606.005859" xlink:href="#DejaVuSans-32"/>
      <use x="637.792969" xlink:href="#DejaVuSans-115"/>
      <use x="689.892578" xlink:href="#DejaVuSans-111"/>
      <use x="751.074219" xlink:href="#DejaVuSans-108"/>
      <use x="778.857422" xlink:href="#DejaVuSans-100"/>
      <use x="842.333984" xlink:href="#DejaVuSans-32"/>
      <use x="874.121094" xlink:href="#DejaVuSans-112"/>
      <use x="937.597656" xlink:href="#DejaVuSans-101"/>
      <use x="999.121094" xlink:href="#DejaVuSans-114"/>
      <use x="1040.234375" xlink:href="#DejaVuSans-32"/>
      <use x="1072.021484" xlink:href="#DejaVuSans-109"/>
      <use x="1169.433594" xlink:href="#DejaVuSans-111"/>
      <use x="1230.615234" xlink:href="#DejaVuSans-110"/>
      <use x="1293.994141" xlink:href="#DejaVuSans-116"/>
      <use x="1333.203125" xlink:href="#DejaVuSans-104"/>
      <use x="1396.582031" xlink:href="#DejaVuSans-44"/>
      <use x="1428.369141" xlink:href="#DejaVuSans-32"/>
      <use x="1460.15625" xlink:href="#DejaVuSans-83"/>
      <use x="1523.632812" xlink:href="#DejaVuSans-119"/>
      <use x="1605.419922" xlink:href="#DejaVuSans-105"/>
      <use x="1633.203125" xlink:href="#DejaVuSans-115"/>
      <use x="1685.302734" xlink:href="#DejaVuSans-115"/>
      <use x="1737.402344" xlink:href="#DejaVuSans-32"/>
      <use x="1769.189453" xlink:href="#DejaVuSans-102"/>
      <use x="1804.394531" xlink:href="#DejaVuSans-101"/>
      <use x="1865.917969" xlink:href="#DejaVuSans-100"/>
      <use x="1929.394531" xlink:href="#DejaVuSans-101"/>
      <use x="1990.917969" xlink:href="#DejaVuSans-114"/>
      <use x="2032.03125" xlink:href="#DejaVuSans-97"/>
      <use x="2093.310547" xlink:href="#DejaVuSans-108"/>
      <use x="2121.09375" xlink:href="#DejaVuSans-32"/>
      <use x="2152.880859" xlink:href="#DejaVuSans-111"/>
      <use x="2214.0625" xlink:href="#DejaVuSans-102"/>
      <use x="2249.267578" xlink:href="#DejaVuSans-102"/>
      <use x="2284.472656" xlink:href="#DejaVuSans-105"/>
      <use x="2312.255859" xlink:href="#DejaVuSans-99"/>
      <use x="2367.236328" xlink:href="#DejaVuSans-101"/>
      <use x="2428.759766" xlink:href="#DejaVuSans-32"/>
      <use x="2460.546875" xlink:href="#DejaVuSans-111"/>
      <use x="2521.728516" xlink:href="#DejaVuSans-102"/>
      <use x="2556.933594" xlink:href="#DejaVuSans-32"/>
      <use x="2588.720703" xlink:href="#DejaVuSans-115"/>
      <use x="2640.820312" xlink:href="#DejaVuSans-116"/>
      <use x="2680.029297" xlink:href="#DejaVuSans-97"/>
      <use x="2741.308594" xlink:href="#DejaVuSans-116"/>
      <use x="2780.517578" xlink:href="#DejaVuSans-105"/>
      <use x="2808.300781" xlink:href="#DejaVuSans-115"/>
      <use x="2860.400391" xlink:href="#DejaVuSans-116"/>
      <use x="2899.609375" xlink:href="#DejaVuSans-105"/>
      <use x="2927.392578" xlink:href="#DejaVuSans-99"/>
      <use x="2982.373047" xlink:href="#DejaVuSans-115"/>
     </g>
    </g>
   </g>
   <g id="matplotlib.axis_2">
    <g id="ytick_1">
     <g id="line2d_9">
      <defs>
       <path d="M 0 0 
L -3.5 0 
" id="m178ec4f945" style="stroke:#000000;stroke-width:0.8;"/>
      </defs>
      <g>
       <use style="stroke:#000000;stroke-width:0.8;" x="108" xlink:href="#m178ec4f945" y="484.232727"/>
      </g>
     </g>
     <g id="text_10">
      <!-- 0 -->
      <g transform="translate(94.6375 488.031946)scale(0.1 -0.1)">
       <use xlink:href="#DejaVuSans-48"/>
      </g>
     </g>
    </g>
    <g id="ytick_2">
     <g id="line2d_10">
      <g>
       <use style="stroke:#000000;stroke-width:0.8;" x="108" xlink:href="#m178ec4f945" y="427.754805"/>
      </g>
     </g>
     <g id="text_11">
      <!-- 200 -->
      <g transform="translate(81.9125 431.554024)scale(0.1 -0.1)">
       <use xlink:href="#DejaVuSans-50"/>
       <use x="63.623047" xlink:href="#DejaVuSans-48"/>
       <use x="127.246094" xlink:href="#DejaVuSans-48"/>
      </g>
     </g>
    </g>
    <g id="ytick_3">
     <g id="line2d_11">
      <g>
       <use style="stroke:#000000;stroke-width:0.8;" x="108" xlink:href="#m178ec4f945" y="371.276883"/>
      </g>
     </g>
     <g id="text_12">
      <!-- 400 -->
      <g transform="translate(81.9125 375.076102)scale(0.1 -0.1)">
       <use xlink:href="#DejaVuSans-52"/>
       <use x="63.623047" xlink:href="#DejaVuSans-48"/>
       <use x="127.246094" xlink:href="#DejaVuSans-48"/>
      </g>
     </g>
    </g>
    <g id="ytick_4">
     <g id="line2d_12">
      <g>
       <use style="stroke:#000000;stroke-width:0.8;" x="108" xlink:href="#m178ec4f945" y="314.798961"/>
      </g>
     </g>
     <g id="text_13">
      <!-- 600 -->
      <g transform="translate(81.9125 318.59818)scale(0.1 -0.1)">
       <use xlink:href="#DejaVuSans-54"/>
       <use x="63.623047" xlink:href="#DejaVuSans-48"/>
       <use x="127.246094" xlink:href="#DejaVuSans-48"/>
      </g>
     </g>
    </g>
    <g id="ytick_5">
     <g id="line2d_13">
      <g>
       <use style="stroke:#000000;stroke-width:0.8;" x="108" xlink:href="#m178ec4f945" y="258.321039"/>
      </g>
     </g>
     <g id="text_14">
      <!-- 800 -->
      <g transform="translate(81.9125 262.120258)scale(0.1 -0.1)">
       <defs>
        <path d="M 31.78125 34.625 
Q 24.75 34.625 20.71875 30.859375 
Q 16.703125 27.09375 16.703125 20.515625 
Q 16.703125 13.921875 20.71875 10.15625 
Q 24.75 6.390625 31.78125 6.390625 
Q 38.8125 6.390625 42.859375 10.171875 
Q 46.921875 13.96875 46.921875 20.515625 
Q 46.921875 27.09375 42.890625 30.859375 
Q 38.875 34.625 31.78125 34.625 
z
M 21.921875 38.8125 
Q 15.578125 40.375 12.03125 44.71875 
Q 8.5 49.078125 8.5 55.328125 
Q 8.5 64.0625 14.71875 69.140625 
Q 20.953125 74.21875 31.78125 74.21875 
Q 42.671875 74.21875 48.875 69.140625 
Q 55.078125 64.0625 55.078125 55.328125 
Q 55.078125 49.078125 51.53125 44.71875 
Q 48 40.375 41.703125 38.8125 
Q 48.828125 37.15625 52.796875 32.3125 
Q 56.78125 27.484375 56.78125 20.515625 
Q 56.78125 9.90625 50.3125 4.234375 
Q 43.84375 -1.421875 31.78125 -1.421875 
Q 19.734375 -1.421875 13.25 4.234375 
Q 6.78125 9.90625 6.78125 20.515625 
Q 6.78125 27.484375 10.78125 32.3125 
Q 14.796875 37.15625 21.921875 38.8125 
z
M 18.3125 54.390625 
Q 18.3125 48.734375 21.84375 45.5625 
Q 25.390625 42.390625 31.78125 42.390625 
Q 38.140625 42.390625 41.71875 45.5625 
Q 45.3125 48.734375 45.3125 54.390625 
Q 45.3125 60.0625 41.71875 63.234375 
Q 38.140625 66.40625 31.78125 66.40625 
Q 25.390625 66.40625 21.84375 63.234375 
Q 18.3125 60.0625 18.3125 54.390625 
z
" id="DejaVuSans-56"/>
       </defs>
       <use xlink:href="#DejaVuSans-56"/>
       <use x="63.623047" xlink:href="#DejaVuSans-48"/>
       <use x="127.246094" xlink:href="#DejaVuSans-48"/>
      </g>
     </g>
    </g>
    <g id="ytick_6">
     <g id="line2d_14">
      <g>
       <use style="stroke:#000000;stroke-width:0.8;" x="108" xlink:href="#m178ec4f945" y="201.843117"/>
      </g>
     </g>
     <g id="text_15">
      <!-- 1000 -->
      <g transform="translate(75.55 205.642336)scale(0.1 -0.1)">
       <defs>
        <path d="M 12.40625 8.296875 
L 28.515625 8.296875 
L 28.515625 63.921875 
L 10.984375 60.40625 
L 10.984375 69.390625 
L 28.421875 72.90625 
L 38.28125 72.90625 
L 38.28125 8.296875 
L 54.390625 8.296875 
L 54.390625 0 
L 12.40625 0 
z
" id="DejaVuSans-49"/>
       </defs>
       <use xlink:href="#DejaVuSans-49"/>
       <use x="63.623047" xlink:href="#DejaVuSans-48"/>
       <use x="127.246094" xlink:href="#DejaVuSans-48"/>
       <use x="190.869141" xlink:href="#DejaVuSans-48"/>
      </g>
     </g>
    </g>
    <g id="ytick_7">
     <g id="line2d_15">
      <g>
       <use style="stroke:#000000;stroke-width:0.8;" x="108" xlink:href="#m178ec4f945" y="145.365195"/>
      </g>
     </g>
     <g id="text_16">
      <!-- 1200 -->
      <g transform="translate(75.55 149.164414)scale(0.1 -0.1)">
       <use xlink:href="#DejaVuSans-49"/>
       <use x="63.623047" xlink:href="#DejaVuSans-50"/>
       <use x="127.246094" xlink:href="#DejaVuSans-48"/>
       <use x="190.869141" xlink:href="#DejaVuSans-48"/>
      </g>
     </g>
    </g>
    <g id="ytick_8">
     <g id="line2d_16">
      <g>
       <use style="stroke:#000000;stroke-width:0.8;" x="108" xlink:href="#m178ec4f945" y="88.887273"/>
      </g>
     </g>
     <g id="text_17">
      <!-- 1400 -->
      <g transform="translate(75.55 92.686491)scale(0.1 -0.1)">
       <use xlink:href="#DejaVuSans-49"/>
       <use x="63.623047" xlink:href="#DejaVuSans-52"/>
       <use x="127.246094" xlink:href="#DejaVuSans-48"/>
       <use x="190.869141" xlink:href="#DejaVuSans-48"/>
      </g>
     </g>
    </g>
    <g id="text_18">
     <!-- Colony forming units per 100mL -->
     <g transform="translate(52.2225 415.63375)rotate(-90)scale(0.16 -0.16)">
      <defs>
       <path d="M 64.40625 67.28125 
L 64.40625 56.890625 
Q 59.421875 61.53125 53.78125 63.8125 
Q 48.140625 66.109375 41.796875 66.109375 
Q 29.296875 66.109375 22.65625 58.46875 
Q 16.015625 50.828125 16.015625 36.375 
Q 16.015625 21.96875 22.65625 14.328125 
Q 29.296875 6.6875 41.796875 6.6875 
Q 48.140625 6.6875 53.78125 8.984375 
Q 59.421875 11.28125 64.40625 15.921875 
L 64.40625 5.609375 
Q 59.234375 2.09375 53.4375 0.328125 
Q 47.65625 -1.421875 41.21875 -1.421875 
Q 24.65625 -1.421875 15.125 8.703125 
Q 5.609375 18.84375 5.609375 36.375 
Q 5.609375 53.953125 15.125 64.078125 
Q 24.65625 74.21875 41.21875 74.21875 
Q 47.75 74.21875 53.53125 72.484375 
Q 59.328125 70.75 64.40625 67.28125 
z
" id="DejaVuSans-67"/>
       <path d="M 32.171875 -5.078125 
Q 28.375 -14.84375 24.75 -17.8125 
Q 21.140625 -20.796875 15.09375 -20.796875 
L 7.90625 -20.796875 
L 7.90625 -13.28125 
L 13.1875 -13.28125 
Q 16.890625 -13.28125 18.9375 -11.515625 
Q 21 -9.765625 23.484375 -3.21875 
L 25.09375 0.875 
L 2.984375 54.6875 
L 12.5 54.6875 
L 29.59375 11.921875 
L 46.6875 54.6875 
L 56.203125 54.6875 
z
" id="DejaVuSans-121"/>
       <path d="M 8.5 21.578125 
L 8.5 54.6875 
L 17.484375 54.6875 
L 17.484375 21.921875 
Q 17.484375 14.15625 20.5 10.265625 
Q 23.53125 6.390625 29.59375 6.390625 
Q 36.859375 6.390625 41.078125 11.03125 
Q 45.3125 15.671875 45.3125 23.6875 
L 45.3125 54.6875 
L 54.296875 54.6875 
L 54.296875 0 
L 45.3125 0 
L 45.3125 8.40625 
Q 42.046875 3.421875 37.71875 1 
Q 33.40625 -1.421875 27.6875 -1.421875 
Q 18.265625 -1.421875 13.375 4.4375 
Q 8.5 10.296875 8.5 21.578125 
z
M 31.109375 56 
z
" id="DejaVuSans-117"/>
       <path d="M 9.8125 72.90625 
L 19.671875 72.90625 
L 19.671875 8.296875 
L 55.171875 8.296875 
L 55.171875 0 
L 9.8125 0 
z
" id="DejaVuSans-76"/>
      </defs>
      <use xlink:href="#DejaVuSans-67"/>
      <use x="69.824219" xlink:href="#DejaVuSans-111"/>
      <use x="131.005859" xlink:href="#DejaVuSans-108"/>
      <use x="158.789062" xlink:href="#DejaVuSans-111"/>
      <use x="219.970703" xlink:href="#DejaVuSans-110"/>
      <use x="283.349609" xlink:href="#DejaVuSans-121"/>
      <use x="342.529297" xlink:href="#DejaVuSans-32"/>
      <use x="374.316406" xlink:href="#DejaVuSans-102"/>
      <use x="409.521484" xlink:href="#DejaVuSans-111"/>
      <use x="470.703125" xlink:href="#DejaVuSans-114"/>
      <use x="510.066406" xlink:href="#DejaVuSans-109"/>
      <use x="607.478516" xlink:href="#DejaVuSans-105"/>
      <use x="635.261719" xlink:href="#DejaVuSans-110"/>
      <use x="698.640625" xlink:href="#DejaVuSans-103"/>
      <use x="762.117188" xlink:href="#DejaVuSans-32"/>
      <use x="793.904297" xlink:href="#DejaVuSans-117"/>
      <use x="857.283203" xlink:href="#DejaVuSans-110"/>
      <use x="920.662109" xlink:href="#DejaVuSans-105"/>
      <use x="948.445312" xlink:href="#DejaVuSans-116"/>
      <use x="987.654297" xlink:href="#DejaVuSans-115"/>
      <use x="1039.753906" xlink:href="#DejaVuSans-32"/>
      <use x="1071.541016" xlink:href="#DejaVuSans-112"/>
      <use x="1135.017578" xlink:href="#DejaVuSans-101"/>
      <use x="1196.541016" xlink:href="#DejaVuSans-114"/>
      <use x="1237.654297" xlink:href="#DejaVuSans-32"/>
      <use x="1269.441406" xlink:href="#DejaVuSans-49"/>
      <use x="1333.064453" xlink:href="#DejaVuSans-48"/>
      <use x="1396.6875" xlink:href="#DejaVuSans-48"/>
      <use x="1460.310547" xlink:href="#DejaVuSans-109"/>
      <use x="1557.722656" xlink:href="#DejaVuSans-76"/>
     </g>
    </g>
   </g>
   <g id="patch_3">
    <path d="M 108 504 
L 108 69.12 
" style="fill:none;stroke:#000000;stroke-linecap:square;stroke-linejoin:miter;stroke-width:0.8;"/>
   </g>
   <g id="patch_4">
    <path d="M 777.6 504 
L 777.6 69.12 
" style="fill:none;stroke:#000000;stroke-linecap:square;stroke-linejoin:miter;stroke-width:0.8;"/>
   </g>
   <g id="patch_5">
    <path d="M 108 504 
L 777.6 504 
" style="fill:none;stroke:#000000;stroke-linecap:square;stroke-linejoin:miter;stroke-width:0.8;"/>
   </g>
   <g id="patch_6">
    <path d="M 108 69.12 
L 777.6 69.12 
" style="fill:none;stroke:#000000;stroke-linecap:square;stroke-linejoin:miter;stroke-width:0.8;"/>
   </g>
   <g id="text_19">
    <!-- Grouped by hotel nights sold per month and colony color -->
    <g transform="translate(214.175 50.0736)scale(0.16 -0.16)">
     <defs>
      <path d="M 59.515625 10.40625 
L 59.515625 29.984375 
L 43.40625 29.984375 
L 43.40625 38.09375 
L 69.28125 38.09375 
L 69.28125 6.78125 
Q 63.578125 2.734375 56.6875 0.65625 
Q 49.8125 -1.421875 42 -1.421875 
Q 24.90625 -1.421875 15.25 8.5625 
Q 5.609375 18.5625 5.609375 36.375 
Q 5.609375 54.25 15.25 64.234375 
Q 24.90625 74.21875 42 74.21875 
Q 49.125 74.21875 55.546875 72.453125 
Q 61.96875 70.703125 67.390625 67.28125 
L 67.390625 56.78125 
Q 61.921875 61.421875 55.765625 63.765625 
Q 49.609375 66.109375 42.828125 66.109375 
Q 29.4375 66.109375 22.71875 58.640625 
Q 16.015625 51.171875 16.015625 36.375 
Q 16.015625 21.625 22.71875 14.15625 
Q 29.4375 6.6875 42.828125 6.6875 
Q 48.046875 6.6875 52.140625 7.59375 
Q 56.25 8.5 59.515625 10.40625 
z
" id="DejaVuSans-71"/>
      <path d="M 48.6875 27.296875 
Q 48.6875 37.203125 44.609375 42.84375 
Q 40.53125 48.484375 33.40625 48.484375 
Q 26.265625 48.484375 22.1875 42.84375 
Q 18.109375 37.203125 18.109375 27.296875 
Q 18.109375 17.390625 22.1875 11.75 
Q 26.265625 6.109375 33.40625 6.109375 
Q 40.53125 6.109375 44.609375 11.75 
Q 48.6875 17.390625 48.6875 27.296875 
z
M 18.109375 46.390625 
Q 20.953125 51.265625 25.265625 53.625 
Q 29.59375 56 35.59375 56 
Q 45.5625 56 51.78125 48.09375 
Q 58.015625 40.1875 58.015625 27.296875 
Q 58.015625 14.40625 51.78125 6.484375 
Q 45.5625 -1.421875 35.59375 -1.421875 
Q 29.59375 -1.421875 25.265625 0.953125 
Q 20.953125 3.328125 18.109375 8.203125 
L 18.109375 0 
L 9.078125 0 
L 9.078125 75.984375 
L 18.109375 75.984375 
z
" id="DejaVuSans-98"/>
     </defs>
     <use xlink:href="#DejaVuSans-71"/>
     <use x="77.490234" xlink:href="#DejaVuSans-114"/>
     <use x="116.353516" xlink:href="#DejaVuSans-111"/>
     <use x="177.535156" xlink:href="#DejaVuSans-117"/>
     <use x="240.914062" xlink:href="#DejaVuSans-112"/>
     <use x="304.390625" xlink:href="#DejaVuSans-101"/>
     <use x="365.914062" xlink:href="#DejaVuSans-100"/>
     <use x="429.390625" xlink:href="#DejaVuSans-32"/>
     <use x="461.177734" xlink:href="#DejaVuSans-98"/>
     <use x="524.654297" xlink:href="#DejaVuSans-121"/>
     <use x="583.833984" xlink:href="#DejaVuSans-32"/>
     <use x="615.621094" xlink:href="#DejaVuSans-104"/>
     <use x="679" xlink:href="#DejaVuSans-111"/>
     <use x="740.181641" xlink:href="#DejaVuSans-116"/>
     <use x="779.390625" xlink:href="#DejaVuSans-101"/>
     <use x="840.914062" xlink:href="#DejaVuSans-108"/>
     <use x="868.697266" xlink:href="#DejaVuSans-32"/>
     <use x="900.484375" xlink:href="#DejaVuSans-110"/>
     <use x="963.863281" xlink:href="#DejaVuSans-105"/>
     <use x="991.646484" xlink:href="#DejaVuSans-103"/>
     <use x="1055.123047" xlink:href="#DejaVuSans-104"/>
     <use x="1118.501953" xlink:href="#DejaVuSans-116"/>
     <use x="1157.710938" xlink:href="#DejaVuSans-115"/>
     <use x="1209.810547" xlink:href="#DejaVuSans-32"/>
     <use x="1241.597656" xlink:href="#DejaVuSans-115"/>
     <use x="1293.697266" xlink:href="#DejaVuSans-111"/>
     <use x="1354.878906" xlink:href="#DejaVuSans-108"/>
     <use x="1382.662109" xlink:href="#DejaVuSans-100"/>
     <use x="1446.138672" xlink:href="#DejaVuSans-32"/>
     <use x="1477.925781" xlink:href="#DejaVuSans-112"/>
     <use x="1541.402344" xlink:href="#DejaVuSans-101"/>
     <use x="1602.925781" xlink:href="#DejaVuSans-114"/>
     <use x="1644.039062" xlink:href="#DejaVuSans-32"/>
     <use x="1675.826172" xlink:href="#DejaVuSans-109"/>
     <use x="1773.238281" xlink:href="#DejaVuSans-111"/>
     <use x="1834.419922" xlink:href="#DejaVuSans-110"/>
     <use x="1897.798828" xlink:href="#DejaVuSans-116"/>
     <use x="1937.007812" xlink:href="#DejaVuSans-104"/>
     <use x="2000.386719" xlink:href="#DejaVuSans-32"/>
     <use x="2032.173828" xlink:href="#DejaVuSans-97"/>
     <use x="2093.453125" xlink:href="#DejaVuSans-110"/>
     <use x="2156.832031" xlink:href="#DejaVuSans-100"/>
     <use x="2220.308594" xlink:href="#DejaVuSans-32"/>
     <use x="2252.095703" xlink:href="#DejaVuSans-99"/>
     <use x="2307.076172" xlink:href="#DejaVuSans-111"/>
     <use x="2368.257812" xlink:href="#DejaVuSans-108"/>
     <use x="2396.041016" xlink:href="#DejaVuSans-111"/>
     <use x="2457.222656" xlink:href="#DejaVuSans-110"/>
     <use x="2520.601562" xlink:href="#DejaVuSans-121"/>
     <use x="2579.78125" xlink:href="#DejaVuSans-32"/>
     <use x="2611.568359" xlink:href="#DejaVuSans-99"/>
     <use x="2666.548828" xlink:href="#DejaVuSans-111"/>
     <use x="2727.730469" xlink:href="#DejaVuSans-108"/>
     <use x="2755.513672" xlink:href="#DejaVuSans-111"/>
     <use x="2816.695312" xlink:href="#DejaVuSans-114"/>
    </g>
   </g>
   <g id="legend_1">
    <g id="patch_7">
     <path d="M 117.8 183.066875 
L 304.555625 183.066875 
Q 307.355625 183.066875 307.355625 180.266875 
L 307.355625 78.92 
Q 307.355625 76.12 304.555625 76.12 
L 117.8 76.12 
Q 115 76.12 115 78.92 
L 115 180.266875 
Q 115 183.066875 117.8 183.066875 
z
" style="fill:#ffffff;opacity:0.8;stroke:#cccccc;stroke-linejoin:miter;"/>
    </g>
    <g id="PathCollection_7">
     <defs>
      <path d="M 0 3 
C 0.795609 3 1.55874 2.683901 2.12132 2.12132 
C 2.683901 1.55874 3 0.795609 3 0 
C 3 -0.795609 2.683901 -1.55874 2.12132 -2.12132 
C 1.55874 -2.683901 0.795609 -3 0 -3 
C -0.795609 -3 -1.55874 -2.683901 -2.12132 -2.12132 
C -2.683901 -1.55874 -3 -0.795609 -3 0 
C -3 0.795609 -2.683901 1.55874 -2.12132 2.12132 
C -1.55874 2.683901 -0.795609 3 0 3 
z
" id="m2f3cbf2768" style="stroke:#00008b;"/>
     </defs>
     <g>
      <use style="fill:#00008b;stroke:#00008b;" x="134.6" xlink:href="#m2f3cbf2768" y="88.682812"/>
     </g>
    </g>
    <g id="text_20">
     <!-- Bioindicator UV+ 17 -->
     <g transform="translate(159.8 92.357812)scale(0.14 -0.14)">
      <defs>
       <path d="M 19.671875 34.8125 
L 19.671875 8.109375 
L 35.5 8.109375 
Q 43.453125 8.109375 47.28125 11.40625 
Q 51.125 14.703125 51.125 21.484375 
Q 51.125 28.328125 47.28125 31.5625 
Q 43.453125 34.8125 35.5 34.8125 
z
M 19.671875 64.796875 
L 19.671875 42.828125 
L 34.28125 42.828125 
Q 41.5 42.828125 45.03125 45.53125 
Q 48.578125 48.25 48.578125 53.8125 
Q 48.578125 59.328125 45.03125 62.0625 
Q 41.5 64.796875 34.28125 64.796875 
z
M 9.8125 72.90625 
L 35.015625 72.90625 
Q 46.296875 72.90625 52.390625 68.21875 
Q 58.5 63.53125 58.5 54.890625 
Q 58.5 48.1875 55.375 44.234375 
Q 52.25 40.28125 46.1875 39.3125 
Q 53.46875 37.75 57.5 32.78125 
Q 61.53125 27.828125 61.53125 20.40625 
Q 61.53125 10.640625 54.890625 5.3125 
Q 48.25 0 35.984375 0 
L 9.8125 0 
z
" id="DejaVuSans-66"/>
       <path d="M 8.6875 72.90625 
L 18.609375 72.90625 
L 18.609375 28.609375 
Q 18.609375 16.890625 22.84375 11.734375 
Q 27.09375 6.59375 36.625 6.59375 
Q 46.09375 6.59375 50.34375 11.734375 
Q 54.59375 16.890625 54.59375 28.609375 
L 54.59375 72.90625 
L 64.5 72.90625 
L 64.5 27.390625 
Q 64.5 13.140625 57.4375 5.859375 
Q 50.390625 -1.421875 36.625 -1.421875 
Q 22.796875 -1.421875 15.734375 5.859375 
Q 8.6875 13.140625 8.6875 27.390625 
z
" id="DejaVuSans-85"/>
       <path d="M 28.609375 0 
L 0.78125 72.90625 
L 11.078125 72.90625 
L 34.1875 11.53125 
L 57.328125 72.90625 
L 67.578125 72.90625 
L 39.796875 0 
z
" id="DejaVuSans-86"/>
       <path d="M 46 62.703125 
L 46 35.5 
L 73.1875 35.5 
L 73.1875 27.203125 
L 46 27.203125 
L 46 0 
L 37.796875 0 
L 37.796875 27.203125 
L 10.59375 27.203125 
L 10.59375 35.5 
L 37.796875 35.5 
L 37.796875 62.703125 
z
" id="DejaVuSans-43"/>
      </defs>
      <use xlink:href="#DejaVuSans-66"/>
      <use x="68.603516" xlink:href="#DejaVuSans-105"/>
      <use x="96.386719" xlink:href="#DejaVuSans-111"/>
      <use x="157.568359" xlink:href="#DejaVuSans-105"/>
      <use x="185.351562" xlink:href="#DejaVuSans-110"/>
      <use x="248.730469" xlink:href="#DejaVuSans-100"/>
      <use x="312.207031" xlink:href="#DejaVuSans-105"/>
      <use x="339.990234" xlink:href="#DejaVuSans-99"/>
      <use x="394.970703" xlink:href="#DejaVuSans-97"/>
      <use x="456.25" xlink:href="#DejaVuSans-116"/>
      <use x="495.458984" xlink:href="#DejaVuSans-111"/>
      <use x="556.640625" xlink:href="#DejaVuSans-114"/>
      <use x="597.753906" xlink:href="#DejaVuSans-32"/>
      <use x="629.541016" xlink:href="#DejaVuSans-85"/>
      <use x="702.734375" xlink:href="#DejaVuSans-86"/>
      <use x="771.142578" xlink:href="#DejaVuSans-43"/>
      <use x="854.931641" xlink:href="#DejaVuSans-32"/>
      <use x="886.71875" xlink:href="#DejaVuSans-49"/>
      <use x="950.341797" xlink:href="#DejaVuSans-55"/>
     </g>
    </g>
    <g id="PathCollection_8">
     <defs>
      <path d="M 0 3 
C 0.795609 3 1.55874 2.683901 2.12132 2.12132 
C 2.683901 1.55874 3 0.795609 3 0 
C 3 -0.795609 2.683901 -1.55874 2.12132 -2.12132 
C 1.55874 -2.683901 0.795609 -3 0 -3 
C -0.795609 -3 -1.55874 -2.683901 -2.12132 -2.12132 
C -2.683901 -1.55874 -3 -0.795609 -3 0 
C -3 0.795609 -2.683901 1.55874 -2.12132 2.12132 
C -1.55874 2.683901 -0.795609 3 0 3 
z
" id="mb18e919ecc" style="stroke:#1e90ff;"/>
     </defs>
     <g>
      <use style="fill:#1e90ff;stroke:#1e90ff;" x="134.6" xlink:href="#mb18e919ecc" y="109.232187"/>
     </g>
    </g>
    <g id="text_21">
     <!-- Bioindicator 17 -->
     <g transform="translate(159.8 112.907187)scale(0.14 -0.14)">
      <use xlink:href="#DejaVuSans-66"/>
      <use x="68.603516" xlink:href="#DejaVuSans-105"/>
      <use x="96.386719" xlink:href="#DejaVuSans-111"/>
      <use x="157.568359" xlink:href="#DejaVuSans-105"/>
      <use x="185.351562" xlink:href="#DejaVuSans-110"/>
      <use x="248.730469" xlink:href="#DejaVuSans-100"/>
      <use x="312.207031" xlink:href="#DejaVuSans-105"/>
      <use x="339.990234" xlink:href="#DejaVuSans-99"/>
      <use x="394.970703" xlink:href="#DejaVuSans-97"/>
      <use x="456.25" xlink:href="#DejaVuSans-116"/>
      <use x="495.458984" xlink:href="#DejaVuSans-111"/>
      <use x="556.640625" xlink:href="#DejaVuSans-114"/>
      <use x="597.753906" xlink:href="#DejaVuSans-32"/>
      <use x="629.541016" xlink:href="#DejaVuSans-49"/>
      <use x="693.164062" xlink:href="#DejaVuSans-55"/>
     </g>
    </g>
    <g id="PathCollection_9">
     <defs>
      <path d="M 0 3 
C 0.795609 3 1.55874 2.683901 2.12132 2.12132 
C 2.683901 1.55874 3 0.795609 3 0 
C 3 -0.795609 2.683901 -1.55874 2.12132 -2.12132 
C 1.55874 -2.683901 0.795609 -3 0 -3 
C -0.795609 -3 -1.55874 -2.683901 -2.12132 -2.12132 
C -2.683901 -1.55874 -3 -0.795609 -3 0 
C -3 0.795609 -2.683901 1.55874 -2.12132 2.12132 
C -1.55874 2.683901 -0.795609 3 0 3 
z
" id="m084ff7d707" style="stroke:#40e0d0;"/>
     </defs>
     <g>
      <use style="fill:#40e0d0;stroke:#40e0d0;" x="134.6" xlink:href="#m084ff7d707" y="129.781562"/>
     </g>
    </g>
    <g id="text_22">
     <!-- Coliform 17 -->
     <g transform="translate(159.8 133.456562)scale(0.14 -0.14)">
      <use xlink:href="#DejaVuSans-67"/>
      <use x="69.824219" xlink:href="#DejaVuSans-111"/>
      <use x="131.005859" xlink:href="#DejaVuSans-108"/>
      <use x="158.789062" xlink:href="#DejaVuSans-105"/>
      <use x="186.572266" xlink:href="#DejaVuSans-102"/>
      <use x="221.777344" xlink:href="#DejaVuSans-111"/>
      <use x="282.958984" xlink:href="#DejaVuSans-114"/>
      <use x="322.322266" xlink:href="#DejaVuSans-109"/>
      <use x="419.734375" xlink:href="#DejaVuSans-32"/>
      <use x="451.521484" xlink:href="#DejaVuSans-49"/>
      <use x="515.144531" xlink:href="#DejaVuSans-55"/>
     </g>
    </g>
    <g id="PathCollection_10">
     <defs>
      <path d="M 0 3 
C 0.795609 3 1.55874 2.683901 2.12132 2.12132 
C 2.683901 1.55874 3 0.795609 3 0 
C 3 -0.795609 2.683901 -1.55874 2.12132 -2.12132 
C 1.55874 -2.683901 0.795609 -3 0 -3 
C -0.795609 -3 -1.55874 -2.683901 -2.12132 -2.12132 
C -2.683901 -1.55874 -3 -0.795609 -3 0 
C -3 0.795609 -2.683901 1.55874 -2.12132 2.12132 
C -1.55874 2.683901 -0.795609 3 0 3 
z
" id="mfbc8da55f9" style="stroke:#008000;"/>
     </defs>
     <g>
      <use style="fill:#008000;stroke:#008000;" x="134.6" xlink:href="#mfbc8da55f9" y="150.330937"/>
     </g>
    </g>
    <g id="text_23">
     <!-- Bioindicator 16 -->
     <g transform="translate(159.8 154.005937)scale(0.14 -0.14)">
      <use xlink:href="#DejaVuSans-66"/>
      <use x="68.603516" xlink:href="#DejaVuSans-105"/>
      <use x="96.386719" xlink:href="#DejaVuSans-111"/>
      <use x="157.568359" xlink:href="#DejaVuSans-105"/>
      <use x="185.351562" xlink:href="#DejaVuSans-110"/>
      <use x="248.730469" xlink:href="#DejaVuSans-100"/>
      <use x="312.207031" xlink:href="#DejaVuSans-105"/>
      <use x="339.990234" xlink:href="#DejaVuSans-99"/>
      <use x="394.970703" xlink:href="#DejaVuSans-97"/>
      <use x="456.25" xlink:href="#DejaVuSans-116"/>
      <use x="495.458984" xlink:href="#DejaVuSans-111"/>
      <use x="556.640625" xlink:href="#DejaVuSans-114"/>
      <use x="597.753906" xlink:href="#DejaVuSans-32"/>
      <use x="629.541016" xlink:href="#DejaVuSans-49"/>
      <use x="693.164062" xlink:href="#DejaVuSans-54"/>
     </g>
    </g>
    <g id="PathCollection_11">
     <defs>
      <path d="M 0 3 
C 0.795609 3 1.55874 2.683901 2.12132 2.12132 
C 2.683901 1.55874 3 0.795609 3 0 
C 3 -0.795609 2.683901 -1.55874 2.12132 -2.12132 
C 1.55874 -2.683901 0.795609 -3 0 -3 
C -0.795609 -3 -1.55874 -2.683901 -2.12132 -2.12132 
C -2.683901 -1.55874 -3 -0.795609 -3 0 
C -3 0.795609 -2.683901 1.55874 -2.12132 2.12132 
C -1.55874 2.683901 -0.795609 3 0 3 
z
" id="m6764caff44" style="stroke:#bfbf00;"/>
     </defs>
     <g>
      <use style="fill:#bfbf00;stroke:#bfbf00;" x="134.6" xlink:href="#m6764caff44" y="170.880312"/>
     </g>
    </g>
    <g id="text_24">
     <!-- Coliform 16 -->
     <g transform="translate(159.8 174.555312)scale(0.14 -0.14)">
      <use xlink:href="#DejaVuSans-67"/>
      <use x="69.824219" xlink:href="#DejaVuSans-111"/>
      <use x="131.005859" xlink:href="#DejaVuSans-108"/>
      <use x="158.789062" xlink:href="#DejaVuSans-105"/>
      <use x="186.572266" xlink:href="#DejaVuSans-102"/>
      <use x="221.777344" xlink:href="#DejaVuSans-111"/>
      <use x="282.958984" xlink:href="#DejaVuSans-114"/>
      <use x="322.322266" xlink:href="#DejaVuSans-109"/>
      <use x="419.734375" xlink:href="#DejaVuSans-32"/>
      <use x="451.521484" xlink:href="#DejaVuSans-49"/>
      <use x="515.144531" xlink:href="#DejaVuSans-54"/>
     </g>
    </g>
   </g>
  </g>
  <g id="text_25">
   <!-- Montreux hotel nights sold / occurence of coliform bacteria -->
   <g transform="translate(195.63 23.6775)scale(0.16 -0.16)">
    <defs>
     <path d="M 9.8125 72.90625 
L 24.515625 72.90625 
L 43.109375 23.296875 
L 61.8125 72.90625 
L 76.515625 72.90625 
L 76.515625 0 
L 66.890625 0 
L 66.890625 64.015625 
L 48.09375 14.015625 
L 38.1875 14.015625 
L 19.390625 64.015625 
L 19.390625 0 
L 9.8125 0 
z
" id="DejaVuSans-77"/>
     <path d="M 54.890625 54.6875 
L 35.109375 28.078125 
L 55.90625 0 
L 45.3125 0 
L 29.390625 21.484375 
L 13.484375 0 
L 2.875 0 
L 24.125 28.609375 
L 4.6875 54.6875 
L 15.28125 54.6875 
L 29.78125 35.203125 
L 44.28125 54.6875 
z
" id="DejaVuSans-120"/>
     <path d="M 25.390625 72.90625 
L 33.6875 72.90625 
L 8.296875 -9.28125 
L 0 -9.28125 
z
" id="DejaVuSans-47"/>
    </defs>
    <use xlink:href="#DejaVuSans-77"/>
    <use x="86.279297" xlink:href="#DejaVuSans-111"/>
    <use x="147.460938" xlink:href="#DejaVuSans-110"/>
    <use x="210.839844" xlink:href="#DejaVuSans-116"/>
    <use x="250.048828" xlink:href="#DejaVuSans-114"/>
    <use x="288.912109" xlink:href="#DejaVuSans-101"/>
    <use x="350.435547" xlink:href="#DejaVuSans-117"/>
    <use x="413.814453" xlink:href="#DejaVuSans-120"/>
    <use x="472.994141" xlink:href="#DejaVuSans-32"/>
    <use x="504.78125" xlink:href="#DejaVuSans-104"/>
    <use x="568.160156" xlink:href="#DejaVuSans-111"/>
    <use x="629.341797" xlink:href="#DejaVuSans-116"/>
    <use x="668.550781" xlink:href="#DejaVuSans-101"/>
    <use x="730.074219" xlink:href="#DejaVuSans-108"/>
    <use x="757.857422" xlink:href="#DejaVuSans-32"/>
    <use x="789.644531" xlink:href="#DejaVuSans-110"/>
    <use x="853.023438" xlink:href="#DejaVuSans-105"/>
    <use x="880.806641" xlink:href="#DejaVuSans-103"/>
    <use x="944.283203" xlink:href="#DejaVuSans-104"/>
    <use x="1007.662109" xlink:href="#DejaVuSans-116"/>
    <use x="1046.871094" xlink:href="#DejaVuSans-115"/>
    <use x="1098.970703" xlink:href="#DejaVuSans-32"/>
    <use x="1130.757812" xlink:href="#DejaVuSans-115"/>
    <use x="1182.857422" xlink:href="#DejaVuSans-111"/>
    <use x="1244.039062" xlink:href="#DejaVuSans-108"/>
    <use x="1271.822266" xlink:href="#DejaVuSans-100"/>
    <use x="1335.298828" xlink:href="#DejaVuSans-32"/>
    <use x="1367.085938" xlink:href="#DejaVuSans-47"/>
    <use x="1400.777344" xlink:href="#DejaVuSans-32"/>
    <use x="1432.564453" xlink:href="#DejaVuSans-111"/>
    <use x="1493.746094" xlink:href="#DejaVuSans-99"/>
    <use x="1548.726562" xlink:href="#DejaVuSans-99"/>
    <use x="1603.707031" xlink:href="#DejaVuSans-117"/>
    <use x="1667.085938" xlink:href="#DejaVuSans-114"/>
    <use x="1705.949219" xlink:href="#DejaVuSans-101"/>
    <use x="1767.472656" xlink:href="#DejaVuSans-110"/>
    <use x="1830.851562" xlink:href="#DejaVuSans-99"/>
    <use x="1885.832031" xlink:href="#DejaVuSans-101"/>
    <use x="1947.355469" xlink:href="#DejaVuSans-32"/>
    <use x="1979.142578" xlink:href="#DejaVuSans-111"/>
    <use x="2040.324219" xlink:href="#DejaVuSans-102"/>
    <use x="2075.529297" xlink:href="#DejaVuSans-32"/>
    <use x="2107.316406" xlink:href="#DejaVuSans-99"/>
    <use x="2162.296875" xlink:href="#DejaVuSans-111"/>
    <use x="2223.478516" xlink:href="#DejaVuSans-108"/>
    <use x="2251.261719" xlink:href="#DejaVuSans-105"/>
    <use x="2279.044922" xlink:href="#DejaVuSans-102"/>
    <use x="2314.25" xlink:href="#DejaVuSans-111"/>
    <use x="2375.431641" xlink:href="#DejaVuSans-114"/>
    <use x="2414.794922" xlink:href="#DejaVuSans-109"/>
    <use x="2512.207031" xlink:href="#DejaVuSans-32"/>
    <use x="2543.994141" xlink:href="#DejaVuSans-98"/>
    <use x="2607.470703" xlink:href="#DejaVuSans-97"/>
    <use x="2668.75" xlink:href="#DejaVuSans-99"/>
    <use x="2723.730469" xlink:href="#DejaVuSans-116"/>
    <use x="2762.939453" xlink:href="#DejaVuSans-101"/>
    <use x="2824.462891" xlink:href="#DejaVuSans-114"/>
    <use x="2865.576172" xlink:href="#DejaVuSans-105"/>
    <use x="2893.359375" xlink:href="#DejaVuSans-97"/>
   </g>
  </g>
 </g>
 <defs>
  <clipPath id="p8cc554b0c7">
   <rect height="434.88" width="669.6" x="108" y="69.12"/>
  </clipPath>
 </defs>
</svg>
